<svg xmlns="http://www.w3.org/2000/svg" viewBox="0 0 80 80"><title>Coins_ici</title><g id="Слой_1" data-name="Слой 1"><path d="M54.34,43.76c-1-1-2-2-2.09-2.52s1-2,1.91-3.09c.45-.56.92-1.13,1.27-1.64,2-2.76,3-4.78,2-5.66h0c-.53-.39-1.86-.42-4-.42h0l-.81,0a13.93,13.93,0,0,0-3.09.2c-.35.13-.65.71-1.46,2.38-.28.58-.61,1.25-1,1.9-1.67,3.15-2.8,4.26-3.28,4.26a.17.17,0,0,1-.15-.07c-.55-.56-.45-3.2-.38-5.12,0-.33,0-.65,0-1,0-1.66-.21-2.57-.69-2.85-.63-.45-5-1-7.32-.19a2.34,2.34,0,0,0-1.64,1.37l-.14.41.43.06.22,0c.85.09,2.14.22,1.54,6.45,0,.2-.26,1-.66,1-.2,0-.81-.05-1.94-1.85-.18-.29-.54-1.08-1-2-1.71-3.72-2.44-5.05-3.12-5.08h-.83c-2.55-.06-4.76-.11-5.69.41a.71.71,0,0,0-.34.49c-.28,1.15,1.36,4.51,4.86,10,3,4.73,6,8.06,11.23,8.92.7.08,3.52.26,4.51-.2.37-.18.41-.7.48-1.57.08-1.13.2-2.68,1.11-2.87a11.08,11.08,0,0,1,2.34,2.1A11.88,11.88,0,0,0,49.36,50a10.24,10.24,0,0,0,3.18.38h1.75c1.59,0,3.24,0,3.44-1.33C58,47.31,56.07,45.42,54.34,43.76ZM57,48.94c-.1.66-1.15.71-2.73.72h-.88a11.36,11.36,0,0,1-3.78-.32,12.08,12.08,0,0,1-2.39-2.17c-1.55-1.62-2.3-2.33-2.85-2.33h-.12c-1.47.31-1.62,2.25-1.72,3.53a6.19,6.19,0,0,1-.12,1,13.39,13.39,0,0,1-4,.12c-4.91-.82-7.84-4-10.72-8.6-5.43-8.48-4.79-9.43-4.77-9.46.75-.42,3.07-.37,5.31-.32l.8,0c.5.28,1.86,3.23,2.52,4.66.45,1,.81,1.74,1,2.07,1,1.63,1.9,2.34,2.7,2.17,1-.2,1.22-1.62,1.22-1.65.57-5.92-.49-7-1.83-7.2a2.24,2.24,0,0,1,.83-.48,13.7,13.7,0,0,1,6.81.07s.38.25.36,2.23l0,1c-.11,2.94-.13,4.92.57,5.65a.89.89,0,0,0,.65.29h0c1,.05,2.28-1.52,3.94-4.64.35-.67.67-1.34,1-1.93a13,13,0,0,1,1.09-2,20.22,20.22,0,0,1,2.82-.15h.81a12.13,12.13,0,0,1,3.57.27c.46.43-.26,2-2.16,4.69-.34.49-.8,1-1.24,1.59-1.12,1.38-2.18,2.67-2.06,3.63.07.79,1.06,1.75,2.31,3C55.36,45.74,57.25,47.56,57,48.94Z"/></g></svg>