<svg xmlns="http://www.w3.org/2000/svg" width="15" height="12" viewBox="0 0 15 12">
  <path fill-rule="evenodd" d="M111.909359,5.53010684 L110.621387,2.52641426 L113.598493,2.52641426 L114.870514,5.53010684 L111.909359,5.53010684 Z M109.178032,12.3020038 L111.908769,6.05474866 L114.684407,6.05474866 L109.178032,12.3020038 Z M108.263453,13.0806952 L105.194771,6.05474866 L111.333908,6.05474866 L108.263453,13.0806952 Z M101.843681,6.05474866 L104.61991,6.05474866 L107.349466,12.3031855 L101.843681,6.05474866 Z M102.930186,2.52641426 L105.909064,2.52641426 L104.61991,5.53010684 L101.658166,5.53010684 L102.930186,2.52641426 Z M110.050071,2.52641426 L111.337453,5.53010684 L105.190636,5.53010684 L106.479789,2.52641426 L110.050071,2.52641426 Z M115.516863,5.76406873 C115.51509,5.73866378 115.519226,5.71325883 115.508591,5.68962631 L114.015607,2.1607011 C113.97425,2.0643986 113.87913,2 113.773374,2 L102.756487,2 C102.65014,2 102.555019,2.0643986 102.514253,2.1607011 L101.020088,5.68962631 C101.010044,5.71325883 101.01418,5.73925459 101.010044,5.76406873 C101.010044,5.77529418 101,5.7812023 101,5.79242775 C101,5.79833588 101.005908,5.80188075 101.005908,5.80778888 C101.010044,5.86450692 101.025996,5.92004333 101.064989,5.96553592 L108.067303,13.9107873 C108.073212,13.9172862 108.082665,13.9143321 108.089164,13.9208311 C108.107479,13.9379646 108.123431,13.9533258 108.145882,13.9657329 C108.151199,13.9675053 108.15238,13.9757767 108.158289,13.9781399 C108.192556,13.9923194 108.229186,14 108.263453,14 C108.298311,14 108.334351,13.9923194 108.3698,13.9781399 C108.376299,13.9757767 108.376889,13.9675053 108.381025,13.9645512 C108.404067,13.9533258 108.419428,13.9379646 108.437743,13.9208311 C108.444833,13.9137413 108.454877,13.9166954 108.460785,13.9107873 L115.463099,5.96553592 C115.502092,5.92004333 115.518635,5.86450692 115.522771,5.80778888 C115.522771,5.80188075 115.528679,5.79833588 115.528679,5.79242775 C115.528679,5.7812023 115.518635,5.77529418 115.516863,5.76406873 Z" transform="translate(-101 -2)"/>
</svg>
