<svg xmlns="http://www.w3.org/2000/svg" viewBox="0 0 80 80"><title>Coins_ici</title><g id="Слой_1" data-name="Слой 1"><path d="M54.18,27.48c-.73-.47-2,.05-2.09.1l-25.4,10c-.55.19-1.45.73-1.34,1.56s1.26,1.38,1.31,1.4l6.22,2.09c.31,1,1.92,6.28,2.26,7.36a3.15,3.15,0,0,0,.65,1.29v.06l.19.08.05,0a.9.9,0,0,0,.38.08,1.2,1.2,0,0,0,.68-.23L41,47.68l6.2,4.76.08,0a2.52,2.52,0,0,0,1,.24,1.91,1.91,0,0,0,.71-.14,2.12,2.12,0,0,0,1.1-1.12v0l4.54-22.85v-.07A1.15,1.15,0,0,0,54.18,27.48ZM36.78,43.67l-2.88-1.4,14.8-9.4.18-.1-.07.07C48.35,33.27,37.27,43.23,36.78,43.67ZM35.92,50c0-.09-.07-.19-.1-.3-.3-.94-1.55-5-2.08-6.75l2.82,1.36Zm.7.66-.06,0,.67-5.94,3.19,2.44Zm12.82.52a1.4,1.4,0,0,1-.71.7,1.45,1.45,0,0,1-1.14-.08L37.42,44.05C39,42.66,48.85,33.78,49.3,33.36s.47-.55.45-.78a.35.35,0,0,0,0-.11.53.53,0,0,0-.25-.42c-.35-.21-.86,0-1.14.21L33.12,41.92l-6.23-2.1c-.2-.07-.78-.37-.84-.81s.68-.72.89-.8l25.42-10c.33-.14,1.11-.37,1.43-.16,0,0,.15.1.16.4Z"/></g></svg>