<svg xmlns="http://www.w3.org/2000/svg" viewBox="0 0 80 80"><title>Coins_ici</title><g id="Слой_1" data-name="Слой 1"><path d="M45.16,53.87H34.84a8.72,8.72,0,0,1-8.71-8.71V34.84a8.72,8.72,0,0,1,8.71-8.71H45.16a8.72,8.72,0,0,1,8.71,8.71V45.16A8.71,8.71,0,0,1,45.16,53.87ZM34.84,27A7.86,7.86,0,0,0,27,34.84V45.16A7.86,7.86,0,0,0,34.84,53H45.16A7.86,7.86,0,0,0,53,45.16V34.84A7.86,7.86,0,0,0,45.16,27Z"/><path d="M40.36,47.56a7.51,7.51,0,1,1,7.51-7.51A7.52,7.52,0,0,1,40.36,47.56Zm0-14.17A6.66,6.66,0,1,0,47,40.05,6.67,6.67,0,0,0,40.36,33.39Zm0,11.34a4.69,4.69,0,1,1,4.69-4.68A4.69,4.69,0,0,1,40.36,44.73Zm0-8.52a3.84,3.84,0,1,0,3.84,3.84A3.84,3.84,0,0,0,40.36,36.21Z"/><path d="M48.59,34.13a2.23,2.23,0,1,1,2.23-2.23A2.23,2.23,0,0,1,48.59,34.13Zm0-3.61A1.38,1.38,0,1,0,50,31.9,1.37,1.37,0,0,0,48.59,30.52Z"/></g></svg>