<svg xmlns="http://www.w3.org/2000/svg" viewBox="0 0 80 80"><title>Coins_ici</title><g id="Слой_1" data-name="Слой 1"><path d="M42.24,58.5H34.67V38H30.88v-6.1h3.79V30.36a13,13,0,0,1,.73-5,5.92,5.92,0,0,1,2.71-2.79A10.19,10.19,0,0,1,43,21.5a19.73,19.73,0,0,1,5.82.9l.31.1-1,5.44-.36-.08a13.47,13.47,0,0,0-3.06-.38,2.52,2.52,0,0,0-1.87.58,3.58,3.58,0,0,0-.54,2.41v1.47h5.1V38h-5.1Zm-6.85-.72h6.13V37.32h5.11V32.66H41.52V30.47a4.23,4.23,0,0,1,.74-2.9,3.15,3.15,0,0,1,2.39-.81,13.84,13.84,0,0,1,2.86.32L48.29,23a18.48,18.48,0,0,0-5.3-.78,9.57,9.57,0,0,0-4.54,1,5.22,5.22,0,0,0-2.39,2.45,12.65,12.65,0,0,0-.67,4.72v2.3H31.6v4.66h3.79Z"/></g></svg>