<svg xmlns="http://www.w3.org/2000/svg" xmlns:xlink="http://www.w3.org/1999/xlink" width="45" height="45" viewBox="0 0 45 45">
  <defs>
    <polygon id="icon-logo-a" points="0 22.5 0 0 45 0 45 22.5 45 45 0 45"/>
  </defs>
  <g fill-rule="evenodd">
    <path d="M29.8645,15.769 C29.9905,15.909 30.2065,15.919 30.3465,15.793 C30.4865,15.667 30.4965,15.452 30.3705,15.312 C28.3115,13.031 25.3695,11.722 22.2975,11.722 C16.3025,11.722 11.4255,16.599 11.4255,22.594 C11.4255,28.589 16.3025,33.466 22.2975,33.466 C25.3695,33.466 28.3115,32.157 30.3705,29.875 C30.4965,29.736 30.4865,29.52 30.3465,29.394 C30.2065,29.268 29.9905,29.279 29.8645,29.419 C27.9345,31.558 25.1765,32.784 22.2975,32.784 C16.6785,32.784 12.1075,28.213 12.1075,22.594 C12.1075,16.975 16.6785,12.404 22.2975,12.404 C25.1765,12.404 27.9345,13.63 29.8645,15.769"/>
    <path d="M22.1155,27.7427 C19.0975,27.7427 16.6435,25.2877 16.6435,22.2707 C16.6435,19.2537 19.0975,16.7987 22.1155,16.7987 C25.1325,16.7987 27.5875,19.2537 27.5875,22.2707 C27.5875,25.2877 25.1325,27.7427 22.1155,27.7427 M27.9285,28.4247 C28.1165,28.4247 28.2695,28.2717 28.2695,28.0837 L28.2695,22.1897 C28.2695,22.1797 28.2645,22.1717 28.2635,22.1617 C28.2045,18.8197 25.4715,16.1177 22.1155,16.1177 C18.7215,16.1177 15.9615,18.8777 15.9615,22.2707 C15.9615,25.6637 18.7215,28.4247 22.1155,28.4247 C24.4985,28.4247 26.5655,27.0597 27.5875,25.0737 L27.5875,28.0837 C27.5875,28.2717 27.7395,28.4247 27.9285,28.4247"/>
    <mask id="icon-logo-b">
      <use xlink:href="#icon-logo-a"/>
    </mask>
    <path d="M22.5,44.6548 C10.284,44.6548 0.345,34.7168 0.345,22.4998 C0.345,10.2838 10.284,0.3448 22.5,0.3448 C34.716,0.3448 44.655,10.2838 44.655,22.4998 C44.655,34.7168 34.716,44.6548 22.5,44.6548 M22.5,-0.0002 C10.094,-0.0002 0,10.0928 0,22.4998 C0,34.9068 10.094,44.9998 22.5,44.9998 C34.906,44.9998 45,34.9068 45,22.4998 C45,10.0928 34.906,-0.0002 22.5,-0.0002" mask="url(#icon-logo-b)"/>
    <path d="M22.5,38.23 C13.827,38.23 6.77,31.173 6.77,22.5 C6.77,13.827 13.827,6.77 22.5,6.77 C31.173,6.77 38.23,13.827 38.23,22.5 C38.23,31.173 31.173,38.23 22.5,38.23 M22.5,6.429 C13.639,6.429 6.429,13.639 6.429,22.5 C6.429,31.361 13.639,38.571 22.5,38.571 C31.361,38.571 38.571,31.361 38.571,22.5 C38.571,13.639 31.361,6.429 22.5,6.429"/>
    <path d="M22.5,42.6064 C11.413,42.6064 2.394,33.5864 2.394,22.5004 C2.394,11.4134 11.413,2.3934 22.5,2.3934 C33.587,2.3934 42.606,11.4134 42.606,22.5004 C42.606,33.5864 33.587,42.6064 22.5,42.6064 M22.5,2.0524 C11.225,2.0524 2.053,11.2254 2.053,22.5004 C2.053,33.7744 11.225,42.9474 22.5,42.9474 C33.775,42.9474 42.947,33.7744 42.947,22.5004 C42.947,11.2254 33.775,2.0524 22.5,2.0524"/>
    <path d="M20.2754 5.9351C20.2824 5.9351 20.2904 5.9351 20.2974 5.9341 20.3914 5.9211 20.4584 5.8351 20.4464 5.7411L20.1074 3.1011C20.0954 3.0071 20.0084 2.9401 19.9144 2.9521 19.8204 2.9641 19.7534 3.0511 19.7654 3.1451L20.1044 5.7851C20.1164 5.8721 20.1904 5.9351 20.2754 5.9351M15.8599 6.9741C15.8879 7.0401 15.9519 7.0811 16.0199 7.0811 16.0409 7.0811 16.0639 7.0771 16.0849 7.0681 16.1729 7.0321 16.2149 6.9311 16.1789 6.8431L15.1679 4.3811C15.1319 4.2931 15.0319 4.2511 14.9429 4.2871 14.8549 4.3241 14.8129 4.4241 14.8499 4.5121L15.8599 6.9741zM12.0679 9.2217C12.1019 9.2657 12.1529 9.2897 12.2049 9.2897 12.2419 9.2897 12.2779 9.2777 12.3089 9.2547 12.3849 9.1967 12.3999 9.0887 12.3419 9.0127L10.7289 6.8967C10.6709 6.8207 10.5629 6.8057 10.4869 6.8637 10.4119 6.9217 10.3969 7.0297 10.4549 7.1057L12.0679 9.2217zM8.9866 12.374C9.0176 12.398 9.0546 12.41 9.0916 12.41 9.1436 12.41 9.1946 12.387 9.2286 12.343 9.2866 12.268 9.2726 12.16 9.1976 12.101L7.0906 10.475C7.0166 10.416 6.9076 10.43 6.8496 10.506 6.7916 10.581 6.8056 10.689 6.8806 10.748L8.9866 12.374zM4.3711 15.1904L6.8261 16.2164C6.8481 16.2254 6.8711 16.2304 6.8931 16.2304 6.9601 16.2304 7.0241 16.1904 7.0521 16.1244 7.0891 16.0364 7.0471 15.9354 6.9591 15.8984L4.5041 14.8724C4.4161 14.8364 4.3151 14.8774 4.2781 14.9654 4.2421 15.0524 4.2831 15.1534 4.3711 15.1904M3.0969 20.1318L5.7339 20.4868C5.7419 20.4878 5.7499 20.4888 5.7569 20.4888 5.8419 20.4888 5.9159 20.4258 5.9279 20.3398 5.9409 20.2458 5.8749 20.1588 5.7799 20.1458L3.1429 19.7898C3.0479 19.7778 2.9619 19.8438 2.9489 19.9378 2.9359 20.0318 3.0029 20.1188 3.0969 20.1318M5.9336 24.7021C5.9216 24.6081 5.8356 24.5421 5.7406 24.5531L3.1016 24.8921C3.0066 24.9051 2.9406 24.9911 2.9526 25.0851 2.9636 25.1721 3.0376 25.2361 3.1226 25.2361 3.1306 25.2361 3.1376 25.2351 3.1456 25.2341L5.7846 24.8951C5.8786 24.8831 5.9456 24.7971 5.9336 24.7021M7.0681 28.915C7.0321 28.827 6.9321 28.785 6.8431 28.821L4.3811 29.832C4.2931 29.868 4.2511 29.968 4.2871 30.057 4.3151 30.123 4.3791 30.164 4.4471 30.164 4.4691 30.164 4.4911 30.159 4.5121 30.15L6.9741 29.14C7.0621 29.104 7.1041 29.003 7.0681 28.915M9.2542 32.6904C9.1962 32.6154 9.0882 32.6004 9.0132 32.6584L6.8962 34.2714C6.8212 34.3284 6.8062 34.4374 6.8642 34.5124 6.8982 34.5574 6.9492 34.5804 7.0012 34.5804 7.0372 34.5804 7.0742 34.5694 7.1052 34.5454L9.2222 32.9324C9.2972 32.8744 9.3122 32.7664 9.2542 32.6904M12.1013 35.8027L10.4753 37.9087C10.4163 37.9837 10.4303 38.0927 10.5063 38.1507 10.5373 38.1747 10.5743 38.1857 10.6113 38.1857 10.6623 38.1857 10.7133 38.1637 10.7473 38.1197L12.3743 36.0127C12.4323 35.9377 12.4183 35.8297 12.3433 35.7717 12.2683 35.7127 12.1593 35.7267 12.1013 35.8027M16.1243 37.9482C16.0363 37.9112 15.9353 37.9532 15.8983 38.0412L14.8723 40.4962C14.8353 40.5832 14.8773 40.6842 14.9653 40.7212 14.9873 40.7302 15.0093 40.7352 15.0313 40.7352 15.0993 40.7352 15.1633 40.6952 15.1903 40.6292L16.2173 38.1742C16.2533 38.0862 16.2123 37.9852 16.1243 37.9482M20.3396 39.0723C20.2446 39.0593 20.1586 39.1253 20.1456 39.2193L19.7896 41.8573C19.7776 41.9513 19.8436 42.0383 19.9376 42.0513 19.9456 42.0513 19.9536 42.0523 19.9616 42.0523 20.0466 42.0523 20.1206 41.9893 20.1316 41.9033L20.4876 39.2653C20.5006 39.1713 20.4336 39.0843 20.3396 39.0723M24.7024 39.0664C24.6084 39.0784 24.5414 39.1654 24.5534 39.2594L24.8924 41.8994C24.9034 41.9854 24.9774 42.0494 25.0634 42.0494 25.0704 42.0494 25.0774 42.0484 25.0854 42.0474 25.1794 42.0354 25.2464 41.9494 25.2344 41.8554L24.8954 39.2154C24.8834 39.1214 24.7964 39.0544 24.7024 39.0664M29.1401 38.0259C29.1041 37.9379 29.0031 37.8959 28.9151 37.9319 28.8271 37.9679 28.7851 38.0689 28.8211 38.1569L29.8321 40.6189C29.8591 40.6849 29.9231 40.7259 29.9911 40.7259 30.0131 40.7259 30.0351 40.7209 30.0571 40.7129 30.1451 40.6759 30.1871 40.5759 30.1501 40.4879L29.1401 38.0259zM32.9321 35.7783C32.8741 35.7033 32.7661 35.6883 32.6911 35.7453 32.6151 35.8033 32.6001 35.9113 32.6581 35.9873L34.2711 38.1033C34.3051 38.1483 34.3571 38.1713 34.4081 38.1713 34.4451 38.1713 34.4811 38.1603 34.5131 38.1363 34.5881 38.0783 34.6031 37.9703 34.5451 37.8943L32.9321 35.7783zM36.0134 32.626C35.9384 32.568 35.8294 32.582 35.7714 32.657 35.7134 32.732 35.7274 32.84 35.8024 32.899L37.9094 34.525C37.9404 34.549 37.9774 34.561 38.0134 34.561 38.0654 34.561 38.1164 34.538 38.1504 34.494 38.2084 34.419 38.1944 34.311 38.1194 34.252L36.0134 32.626zM40.6289 29.8096L38.1739 28.7836C38.0859 28.7466 37.9849 28.7886 37.9479 28.8756 37.9109 28.9636 37.9529 29.0646 38.0409 29.1016L40.4959 30.1276C40.5179 30.1366 40.5399 30.1416 40.5629 30.1416 40.6299 30.1416 40.6939 30.1016 40.7219 30.0346 40.7579 29.9476 40.7169 29.8466 40.6289 29.8096M41.9031 24.8682L39.2661 24.5132C39.1711 24.4992 39.0851 24.5662 39.0721 24.6602 39.0591 24.7542 39.1251 24.8412 39.2201 24.8542L41.8571 25.2102C41.8651 25.2112 41.8721 25.2112 41.8801 25.2112 41.9651 25.2112 42.0391 25.1492 42.0511 25.0622 42.0641 24.9682 41.9971 24.8812 41.9031 24.8682M39.0664 20.2979C39.0774 20.3849 39.1514 20.4479 39.2374 20.4479 39.2444 20.4479 39.2524 20.4469 39.2594 20.4469L41.8984 20.1079C41.9934 20.0949 42.0594 20.0089 42.0474 19.9149 42.0354 19.8199 41.9494 19.7549 41.8544 19.7659L39.2154 20.1049C39.1214 20.1169 39.0544 20.2029 39.0664 20.2979M37.9319 16.085C37.9599 16.151 38.0239 16.192 38.0919 16.192 38.1129 16.192 38.1359 16.188 38.1569 16.179L40.6189 15.168C40.7069 15.132 40.7489 15.032 40.7129 14.943 40.6769 14.856 40.5759 14.813 40.4879 14.85L38.0259 15.86C37.9379 15.896 37.8959 15.997 37.9319 16.085M35.7458 12.3096C35.7798 12.3536 35.8308 12.3776 35.8828 12.3776 35.9188 12.3776 35.9558 12.3656 35.9868 12.3416L38.1038 10.7286C38.1788 10.6716 38.1938 10.5626 38.1358 10.4876 38.0788 10.4116 37.9708 10.3966 37.8948 10.4546L35.7778 12.0676C35.7028 12.1256 35.6878 12.2336 35.7458 12.3096M32.7622 9.2642C32.8142 9.2642 32.8652 9.2412 32.8982 9.1972L34.5252 7.0912C34.5832 7.0162 34.5692 6.9082 34.4942 6.8492 34.4192 6.7912 34.3102 6.8052 34.2522 6.8802L32.6262 8.9872C32.5672 9.0622 32.5822 9.1702 32.6572 9.2282 32.6882 9.2532 32.7252 9.2642 32.7622 9.2642M28.8757 7.0518C28.8977 7.0608 28.9197 7.0658 28.9417 7.0658 29.0097 7.0658 29.0737 7.0258 29.1017 6.9588L30.1277 4.5038C30.1647 4.4168 30.1227 4.3158 30.0347 4.2788 29.9467 4.2418 29.8457 4.2838 29.8097 4.3708L28.7827 6.8258C28.7467 6.9138 28.7877 7.0148 28.8757 7.0518M24.6604 5.9277C24.6684 5.9287 24.6764 5.9297 24.6834 5.9297 24.7684 5.9297 24.8424 5.8667 24.8544 5.7807L25.2104 3.1427C25.2224 3.0487 25.1564 2.9617 25.0624 2.9487 24.9674 2.9357 24.8814 3.0027 24.8684 3.0967L24.5124 5.7347C24.4994 5.8287 24.5664 5.9157 24.6604 5.9277M22.4258 5.7881C22.5208 5.7881 22.5988 5.7111 22.5988 5.6161L22.5988 2.9551C22.5988 2.8591 22.5208 2.7821 22.4258 2.7821 22.3308 2.7821 22.2538 2.8591 22.2538 2.9551L22.2538 5.6161C22.2538 5.7111 22.3308 5.7881 22.4258 5.7881M17.8918 6.2549C17.9128 6.3319 17.9818 6.3819 18.0588 6.3819 18.0728 6.3819 18.0878 6.3799 18.1028 6.3769 18.1948 6.3519 18.2498 6.2569 18.2248 6.1659L17.5368 3.5949C17.5118 3.5029 17.4178 3.4479 17.3248 3.4729 17.2328 3.4979 17.1788 3.5919 17.2038 3.6839L17.8918 6.2549zM13.8445 8.0005C13.8765 8.0565 13.9345 8.0865 13.9935 8.0865 14.0225 8.0865 14.0525 8.0795 14.0795 8.0635 14.1625 8.0165 14.1905 7.9105 14.1425 7.8285L12.8125 5.5235C12.7645 5.4415 12.6585 5.4135 12.5775 5.4605 12.4945 5.5085 12.4665 5.6135 12.5135 5.6965L13.8445 8.0005zM10.3867 10.7349C10.4207 10.7689 10.4647 10.7859 10.5087 10.7859 10.5527 10.7859 10.5967 10.7689 10.6307 10.7349 10.6977 10.6679 10.6977 10.5589 10.6307 10.4909L8.7487 8.6099C8.6817 8.5429 8.5727 8.5429 8.5047 8.6099 8.4377 8.6769 8.4377 8.7859 8.5047 8.8539L10.3867 10.7349zM5.4502 12.9404L7.7542 14.2714C7.7822 14.2864 7.8112 14.2944 7.8402 14.2944 7.9002 14.2944 7.9582 14.2634 7.9902 14.2084 8.0372 14.1254 8.0092 14.0204 7.9272 13.9724L5.6222 12.6424C5.5402 12.5944 5.4342 12.6234 5.3872 12.7054 5.3392 12.7874 5.3672 12.8934 5.4502 12.9404M3.5569 17.6792L6.1269 18.3672C6.1419 18.3712 6.1569 18.3742 6.1719 18.3742 6.2479 18.3742 6.3169 18.3232 6.3379 18.2462 6.3629 18.1542 6.3079 18.0592 6.2159 18.0342L3.6459 17.3462C3.5539 17.3212 3.4599 17.3762 3.4349 17.4682 3.4109 17.5602 3.4649 17.6542 3.5569 17.6792M5.6157 22.7461C5.7107 22.7461 5.7877 22.6691 5.7877 22.5741 5.7877 22.4781 5.7107 22.4021 5.6157 22.4021L2.9547 22.4021C2.8597 22.4021 2.7827 22.4781 2.7827 22.5741 2.7827 22.6691 2.8597 22.7461 2.9547 22.7461L5.6157 22.7461zM6.3765 26.897C6.3515 26.805 6.2575 26.751 6.1655 26.775L3.5955 27.464C3.5035 27.488 3.4485 27.583 3.4735 27.675 3.4935 27.752 3.5635 27.803 3.6395 27.803 3.6545 27.803 3.6695 27.801 3.6845 27.797L6.2545 27.108C6.3465 27.083 6.4015 26.989 6.3765 26.897M8.064 30.9204C8.016 30.8374 7.911 30.8094 7.828 30.8574L5.524 32.1874C5.442 32.2354 5.413 32.3404 5.461 32.4224 5.493 32.4784 5.551 32.5094 5.61 32.5094 5.64 32.5094 5.669 32.5024 5.696 32.4854L8.001 31.1554C8.083 31.1074 8.112 31.0024 8.064 30.9204M10.7351 34.3696C10.6681 34.3016 10.5581 34.3016 10.4911 34.3696L8.6101 36.2506C8.5421 36.3186 8.5421 36.4276 8.6101 36.4946 8.6431 36.5286 8.6871 36.5456 8.7321 36.5456 8.7761 36.5456 8.8191 36.5286 8.8531 36.4946L10.7351 34.6136C10.8021 34.5456 10.8021 34.4366 10.7351 34.3696M14.208 37.0103C14.125 36.9623 14.02 36.9903 13.973 37.0733L12.642 39.3773C12.594 39.4603 12.623 39.5653 12.705 39.6133 12.732 39.6293 12.762 39.6363 12.791 39.6363 12.851 39.6363 12.909 39.6053 12.941 39.5503L14.271 37.2453C14.319 37.1633 14.291 37.0573 14.208 37.0103M18.2461 38.6621C18.1541 38.6381 18.0601 38.6921 18.0351 38.7841L17.3461 41.3541C17.3211 41.4461 17.3761 41.5401 17.4681 41.5651 17.4831 41.5691 17.4981 41.5711 17.5131 41.5711 17.5891 41.5711 17.6581 41.5201 17.6791 41.4431L18.3681 38.8731C18.3921 38.7811 18.3381 38.6861 18.2461 38.6621M22.5742 39.2119C22.4792 39.2119 22.4012 39.2889 22.4012 39.3839L22.4012 42.0449C22.4012 42.1409 22.4792 42.2179 22.5742 42.2179 22.6692 42.2179 22.7462 42.1409 22.7462 42.0449L22.7462 39.3839C22.7462 39.2889 22.6692 39.2119 22.5742 39.2119M27.1082 38.7451C27.0832 38.6531 26.9892 38.5991 26.8972 38.6231 26.8052 38.6481 26.7502 38.7431 26.7752 38.8341L27.4632 41.4051C27.4842 41.4821 27.5542 41.5331 27.6302 41.5331 27.6452 41.5331 27.6602 41.5311 27.6752 41.5271 27.7672 41.5021 27.8212 41.4081 27.7962 41.3161L27.1082 38.7451zM31.1555 36.9995C31.1075 36.9165 31.0025 36.8885 30.9205 36.9365 30.8375 36.9835 30.8095 37.0895 30.8575 37.1715L32.1875 39.4765C32.2195 39.5315 32.2775 39.5625 32.3365 39.5625 32.3665 39.5625 32.3955 39.5545 32.4225 39.5395 32.5055 39.4915 32.5335 39.3865 32.4865 39.3035L31.1555 36.9995zM34.6133 34.2651C34.5463 34.1971 34.4363 34.1971 34.3693 34.2651 34.3023 34.3321 34.3023 34.4411 34.3693 34.5091L36.2513 36.3901C36.2853 36.4241 36.3293 36.4401 36.3733 36.4401 36.4173 36.4401 36.4613 36.4241 36.4953 36.3901 36.5623 36.3231 36.5623 36.2141 36.4953 36.1461L34.6133 34.2651zM39.5498 32.0596L37.2458 30.7286C37.1638 30.6816 37.0578 30.7096 37.0098 30.7916 36.9628 30.8746 36.9908 30.9796 37.0728 31.0276L39.3778 32.3576C39.4048 32.3736 39.4348 32.3806 39.4638 32.3806 39.5228 32.3806 39.5808 32.3506 39.6128 32.2946 39.6608 32.2126 39.6328 32.1066 39.5498 32.0596M41.4431 27.3208L38.8731 26.6328C38.7801 26.6078 38.6861 26.6618 38.6621 26.7538 38.6371 26.8458 38.6921 26.9408 38.7841 26.9658L41.3541 27.6538C41.3691 27.6578 41.3841 27.6598 41.3991 27.6598 41.4751 27.6598 41.5441 27.6088 41.5651 27.5318 41.5891 27.4398 41.5351 27.3458 41.4431 27.3208M42.0454 22.2539L39.3844 22.2539C39.2894 22.2539 39.2124 22.3309 39.2124 22.4259 39.2124 22.5219 39.2894 22.5979 39.3844 22.5979L42.0454 22.5979C42.1404 22.5979 42.2174 22.5219 42.2174 22.4259 42.2174 22.3309 42.1404 22.2539 42.0454 22.2539M38.6235 18.103C38.6445 18.18 38.7135 18.231 38.7905 18.231 38.8045 18.231 38.8195 18.229 38.8345 18.225L41.4045 17.536C41.4965 17.512 41.5515 17.417 41.5265 17.325 41.5025 17.233 41.4075 17.178 41.3155 17.203L38.7455 17.892C38.6535 17.917 38.5985 18.011 38.6235 18.103M36.936 14.0796C36.968 14.1356 37.026 14.1656 37.085 14.1656 37.115 14.1656 37.144 14.1586 37.172 14.1426L39.476 12.8126C39.558 12.7646 39.587 12.6596 39.539 12.5776 39.491 12.4946 39.386 12.4656 39.304 12.5146L36.999 13.8446C36.917 13.8926 36.888 13.9976 36.936 14.0796M34.2649 10.6304C34.2989 10.6644 34.3429 10.6814 34.3869 10.6814 34.4309 10.6814 34.4749 10.6644 34.5089 10.6304L36.3899 8.7494C36.4579 8.6814 36.4579 8.5724 36.3899 8.5054 36.3229 8.4374 36.2139 8.4374 36.1469 8.5054L34.2649 10.3864C34.1979 10.4544 34.1979 10.5634 34.2649 10.6304M30.792 7.9897C30.819 8.0057 30.849 8.0127 30.878 8.0127 30.938 8.0127 30.995 7.9817 31.027 7.9267L32.358 5.6227C32.406 5.5397 32.377 5.4347 32.295 5.3867 32.213 5.3397 32.107 5.3677 32.059 5.4497L30.729 7.7547C30.681 7.8367 30.709 7.9427 30.792 7.9897M26.7539 6.3379C26.7689 6.3419 26.7839 6.3439 26.7989 6.3439 26.8749 6.3439 26.9439 6.2939 26.9649 6.2159L27.6539 3.6459C27.6789 3.5539 27.6239 3.4599 27.5319 3.4349 27.4399 3.4099 27.3459 3.4649 27.3209 3.5569L26.6319 6.1269C26.6079 6.2189 26.6619 6.3139 26.7539 6.3379"/>
  </g>
</svg>
