<svg xmlns="http://www.w3.org/2000/svg" viewBox="0 0 258.12 92.81"><defs><style>.cls-1{fill:#b49740;}</style></defs><title>Coins_ici</title><g id="Слой_1" data-name="Слой 1"><path d="M107.08,47a6.67,6.67,0,0,1,6.63-6.86,6.92,6.92,0,0,1,5.1,2.18l-.65.66a6.1,6.1,0,0,0-4.47-1.95,5.69,5.69,0,0,0-5.59,6,5.73,5.73,0,0,0,5.61,6,6.07,6.07,0,0,0,4.57-2.07l.66.65a7,7,0,0,1-5.27,2.31A6.6,6.6,0,0,1,107.08,47Z"/><path d="M124.47,47a6.67,6.67,0,1,1,6.65,6.86A6.67,6.67,0,0,1,124.47,47Zm12.32,0a5.74,5.74,0,0,0-5.67-6,5.68,5.68,0,0,0-5.62,6,5.65,5.65,0,1,0,11.29,0Z"/><path d="M145.09,40.4h1V53.66h-1Z"/><path d="M153.93,40.4h.93L164,51.94V40.4h1V53.66h-.74l-9.34-11.78V53.66h-.95Z"/><path d="M171.84,51.73l.64-.74a6.46,6.46,0,0,0,4.76,2c2,0,3.35-1.12,3.35-2.67,0-1.4-.74-2.22-3.75-2.82-3.18-.65-4.47-1.73-4.47-3.78s1.8-3.48,4.26-3.48a6.63,6.63,0,0,1,4.55,1.61l-.63.78a5.71,5.71,0,0,0-4-1.5c-2,0-3.24,1.12-3.24,2.54s.72,2.25,3.87,2.9,4.35,1.72,4.35,3.69c0,2.14-1.83,3.62-4.39,3.62A7.55,7.55,0,0,1,171.84,51.73Z"/><path d="M203.12,40.3h.94l6.18,13.36h-1.08L207.47,50h-7.82L198,53.66h-1Zm3.94,8.76-3.49-7.68-3.5,7.68Z"/><path d="M215.49,47A6.62,6.62,0,0,1,222,40.17a7,7,0,0,1,4.85,1.74l-.64.74A6,6,0,0,0,222,41.06c-3.22,0-5.48,2.73-5.48,6,0,3.43,2.14,6,5.68,6a6.8,6.8,0,0,0,4.23-1.52V47.69H222v-.91h5.38V51.9a8,8,0,0,1-5.21,2C218,53.89,215.49,50.8,215.49,47Z"/><path d="M234.72,40.4h9.43v.91H235.7v5.21h7.6v.91h-7.6v5.32h8.55v.91h-9.53Z"/><path class="cls-1" d="M50,56.3A10.29,10.29,0,1,1,60.32,46,10.3,10.3,0,0,1,50,56.3Zm0-19.65A9.37,9.37,0,1,0,59.41,46,9.38,9.38,0,0,0,50,36.65Z"/><path class="cls-1" d="M50.35,64.83a18.27,18.27,0,1,1,13.56-30.5.46.46,0,0,1,0,.65.45.45,0,0,1-.64,0,17.35,17.35,0,1,0,0,23.24.46.46,0,0,1,.68.62A18.32,18.32,0,0,1,50.35,64.83Z"/><path class="cls-1" d="M59.87,56.3a.45.45,0,0,1-.46-.45v-10a.46.46,0,1,1,.91,0v10A.45.45,0,0,1,59.87,56.3Z"/><path class="cls-1" d="M50.69,83.22A36.82,36.82,0,1,1,87.5,46.41,36.85,36.85,0,0,1,50.69,83.22Zm0-73a36.21,36.21,0,1,0,36.2,36.21A36.24,36.24,0,0,0,50.69,10.2Z"/><path class="cls-1" d="M50.69,73.59A27.19,27.19,0,1,1,77.88,46.41,27.22,27.22,0,0,1,50.69,73.59Zm0-53.77A26.59,26.59,0,1,0,77.27,46.41,26.61,26.61,0,0,0,50.69,19.82Z"/><path class="cls-1" d="M50.69,81A34.59,34.59,0,1,1,85.28,46.41,34.62,34.62,0,0,1,50.69,81Zm0-68.57a34,34,0,1,0,34,34A34,34,0,0,0,50.69,12.42Z"/><path class="cls-1" d="M47,18.72a.3.3,0,0,1-.3-.27L46.1,14a.3.3,0,0,1,.26-.34.3.3,0,0,1,.34.26l.57,4.41a.32.32,0,0,1-.26.35Z"/><path class="cls-1" d="M39.85,20.63a.31.31,0,0,1-.28-.18l-1.69-4.12a.3.3,0,1,1,.56-.23l1.69,4.11a.31.31,0,0,1-.17.4A.2.2,0,0,1,39.85,20.63Z"/><path class="cls-1" d="M33.47,24.33a.3.3,0,0,1-.24-.12l-2.7-3.54A.3.3,0,1,1,31,20.3l2.7,3.54a.31.31,0,0,1-.06.43A.3.3,0,0,1,33.47,24.33Z"/><path class="cls-1" d="M28.26,29.55a.26.26,0,0,1-.18-.07l-3.52-2.72a.29.29,0,0,1-.06-.42.31.31,0,0,1,.43-.06L28.45,29a.3.3,0,0,1,.05.43A.3.3,0,0,1,28.26,29.55Z"/><path class="cls-1" d="M24.59,35.94a.27.27,0,0,1-.12,0L20.36,34.2a.31.31,0,0,1,.24-.57l4.1,1.72a.31.31,0,0,1-.11.59Z"/><path class="cls-1" d="M22.69,43.06h0l-4.41-.59a.31.31,0,0,1-.27-.34.31.31,0,0,1,.35-.26l4.41.59a.31.31,0,0,1,.26.34A.3.3,0,0,1,22.69,43.06Z"/><path class="cls-1" d="M18.28,51a.31.31,0,0,1,0-.61l4.42-.57a.31.31,0,1,1,.07.61L18.32,51Z"/><path class="cls-1" d="M20.5,59.24a.31.31,0,0,1-.29-.19.31.31,0,0,1,.17-.4L24.5,57a.3.3,0,0,1,.39.17.31.31,0,0,1-.16.4l-4.12,1.69Z"/><path class="cls-1" d="M24.77,66.63a.33.33,0,0,1-.24-.12.3.3,0,0,1,0-.43l3.54-2.7a.3.3,0,1,1,.37.48L25,66.56A.31.31,0,0,1,24.77,66.63Z"/><path class="cls-1" d="M30.8,72.66a.31.31,0,0,1-.18-.07.3.3,0,0,1-.06-.42l2.72-3.53a.31.31,0,0,1,.43,0,.3.3,0,0,1,.06.42l-2.72,3.53A.3.3,0,0,1,30.8,72.66Z"/><path class="cls-1" d="M38.2,76.92a.27.27,0,0,1-.12,0,.29.29,0,0,1-.16-.39l1.71-4.11a.3.3,0,0,1,.4-.16.29.29,0,0,1,.16.39l-1.71,4.11A.3.3,0,0,1,38.2,76.92Z"/><path class="cls-1" d="M46.44,79.12h0a.3.3,0,0,1-.26-.34l.59-4.41a.31.31,0,0,1,.35-.27.32.32,0,0,1,.26.35l-.6,4.41A.3.3,0,0,1,46.44,79.12Z"/><path class="cls-1" d="M55,79.12a.31.31,0,0,1-.3-.27l-.56-4.41a.29.29,0,0,1,.26-.34.3.3,0,0,1,.34.26l.57,4.41a.3.3,0,0,1-.27.34Z"/><path class="cls-1" d="M63.22,76.9a.31.31,0,0,1-.29-.19L61.24,72.6a.31.31,0,0,1,.17-.4.32.32,0,0,1,.4.16l1.69,4.12a.31.31,0,0,1-.17.4Z"/><path class="cls-1" d="M70.6,72.63a.3.3,0,0,1-.24-.12L67.66,69a.31.31,0,0,1,.49-.37l2.69,3.54a.3.3,0,0,1,0,.43A.33.33,0,0,1,70.6,72.63Z"/><path class="cls-1" d="M76.63,66.59a.3.3,0,0,1-.18-.06l-3.52-2.72a.3.3,0,0,1-.06-.43.31.31,0,0,1,.43-.05l3.52,2.72a.29.29,0,0,1,.05.42A.3.3,0,0,1,76.63,66.59Z"/><path class="cls-1" d="M80.9,59.2l-.12,0-4.11-1.72a.3.3,0,0,1,.24-.56L81,58.61a.31.31,0,0,1-.11.59Z"/><path class="cls-1" d="M83.1,51h0l-4.41-.59a.3.3,0,0,1-.26-.34.29.29,0,0,1,.34-.26l4.41.59a.3.3,0,0,1,.26.34A.31.31,0,0,1,83.1,51Z"/><path class="cls-1" d="M78.68,43a.31.31,0,0,1,0-.61l4.41-.56a.3.3,0,1,1,.08.6L78.72,43Z"/><path class="cls-1" d="M76.76,35.87a.3.3,0,0,1-.11-.58l4.11-1.69a.3.3,0,0,1,.4.16.31.31,0,0,1-.17.4l-4.11,1.69Z"/><path class="cls-1" d="M73.07,29.49a.3.3,0,0,1-.24-.12.29.29,0,0,1,0-.42l3.54-2.7a.3.3,0,0,1,.43.06.29.29,0,0,1-.06.42l-3.54,2.7A.3.3,0,0,1,73.07,29.49Z"/><path class="cls-1" d="M67.85,24.29a.34.34,0,0,1-.19-.07.3.3,0,0,1,0-.42l2.72-3.53a.31.31,0,1,1,.48.38l-2.72,3.52A.3.3,0,0,1,67.85,24.29Z"/><path class="cls-1" d="M61.46,20.61a.27.27,0,0,1-.12,0,.3.3,0,0,1-.16-.39l1.72-4.11a.29.29,0,0,1,.39-.16.3.3,0,0,1,.17.39l-1.72,4.11A.3.3,0,0,1,61.46,20.61Z"/><path class="cls-1" d="M54.34,18.71h0a.31.31,0,0,1-.26-.35L54.63,14a.31.31,0,0,1,.61.08l-.6,4.41A.3.3,0,0,1,54.34,18.71Z"/><path class="cls-1" d="M50.56,18.47a.3.3,0,0,1-.3-.3V13.72a.31.31,0,1,1,.61,0v4.45A.3.3,0,0,1,50.56,18.47Z"/><path class="cls-1" d="M43.26,19.47a.3.3,0,0,1-.29-.23l-1.16-4.3a.31.31,0,0,1,.22-.37.3.3,0,0,1,.37.21l1.15,4.3a.31.31,0,0,1-.21.38Z"/><path class="cls-1" d="M36.46,22.32a.3.3,0,0,1-.26-.16L34,18.31a.31.31,0,0,1,.11-.41.3.3,0,0,1,.42.11l2.22,3.85a.3.3,0,0,1-.11.42A.37.37,0,0,1,36.46,22.32Z"/><path class="cls-1" d="M30.63,26.83a.29.29,0,0,1-.21-.09l-3.15-3.15a.3.3,0,0,1,0-.43.32.32,0,0,1,.43,0l3.15,3.15a.3.3,0,0,1,0,.43A.31.31,0,0,1,30.63,26.83Z"/><path class="cls-1" d="M26.17,32.7a.42.42,0,0,1-.15,0l-3.86-2.23a.31.31,0,0,1-.11-.41.31.31,0,0,1,.42-.12l3.85,2.23a.31.31,0,0,1-.15.57Z"/><path class="cls-1" d="M23.38,39.52H23.3L19,38.36a.31.31,0,0,1,.16-.59l4.3,1.15a.31.31,0,0,1,.21.38A.3.3,0,0,1,23.38,39.52Z"/><path class="cls-1" d="M22.45,46.83H18a.29.29,0,0,1-.3-.3.3.3,0,0,1,.3-.31h4.45a.3.3,0,0,1,.3.31A.29.29,0,0,1,22.45,46.83Z"/><path class="cls-1" d="M19.15,55.29a.31.31,0,0,1-.3-.23.3.3,0,0,1,.22-.37l4.3-1.15a.3.3,0,1,1,.15.59l-4.3,1.15Z"/><path class="cls-1" d="M22.44,63.16a.29.29,0,0,1-.26-.15.3.3,0,0,1,.11-.42l3.85-2.22a.3.3,0,0,1,.42.11.3.3,0,0,1-.11.41l-3.86,2.23A.28.28,0,0,1,22.44,63.16Z"/><path class="cls-1" d="M27.66,69.91a.29.29,0,0,1-.21-.09.3.3,0,0,1,0-.43l3.14-3.15a.32.32,0,0,1,.43,0,.31.31,0,0,1,0,.44l-3.14,3.14A.31.31,0,0,1,27.66,69.91Z"/><path class="cls-1" d="M34.45,75.08a.28.28,0,0,1-.15,0,.3.3,0,0,1-.11-.42l2.22-3.85a.3.3,0,0,1,.42-.11.31.31,0,0,1,.11.41l-2.23,3.86A.28.28,0,0,1,34.45,75.08Z"/><path class="cls-1" d="M42.35,78.32h-.08a.32.32,0,0,1-.22-.38l1.15-4.3a.31.31,0,0,1,.38-.21.29.29,0,0,1,.21.37l-1.15,4.3A.31.31,0,0,1,42.35,78.32Z"/><path class="cls-1" d="M50.81,79.4a.3.3,0,0,1-.3-.31V74.64a.29.29,0,0,1,.3-.3.3.3,0,0,1,.31.3v4.45A.31.31,0,0,1,50.81,79.4Z"/><path class="cls-1" d="M59.27,78.25A.31.31,0,0,1,59,78l-1.15-4.3a.31.31,0,1,1,.59-.16l1.15,4.3a.3.3,0,0,1-.21.37Z"/><path class="cls-1" d="M67.14,75a.29.29,0,0,1-.26-.16L64.65,71a.32.32,0,0,1,.11-.42.31.31,0,0,1,.42.12L67.4,74.5a.3.3,0,0,1-.11.42A.42.42,0,0,1,67.14,75Z"/><path class="cls-1" d="M73.89,69.74a.31.31,0,0,1-.22-.09L70.53,66.5a.3.3,0,0,1,.43-.43l3.14,3.15a.3.3,0,0,1,0,.43A.29.29,0,0,1,73.89,69.74Z"/><path class="cls-1" d="M79.06,63a.37.37,0,0,1-.15,0l-3.86-2.23a.31.31,0,0,1,.31-.53l3.85,2.23a.29.29,0,0,1,.11.41A.3.3,0,0,1,79.06,63Z"/><path class="cls-1" d="M82.29,55.05h-.08l-4.29-1.15a.31.31,0,0,1-.22-.38.3.3,0,0,1,.37-.21l4.3,1.15a.32.32,0,0,1,.22.38A.31.31,0,0,1,82.29,55.05Z"/><path class="cls-1" d="M83.38,46.59H78.93a.31.31,0,0,1-.31-.31.3.3,0,0,1,.31-.3h4.45a.3.3,0,0,1,.3.3A.31.31,0,0,1,83.38,46.59Z"/><path class="cls-1" d="M77.93,39.28a.3.3,0,0,1-.29-.22.31.31,0,0,1,.21-.38l4.3-1.15a.31.31,0,0,1,.16.59L78,39.27Z"/><path class="cls-1" d="M75.08,32.48a.3.3,0,0,1-.15-.56l3.85-2.23a.31.31,0,0,1,.31.53l-3.86,2.22A.28.28,0,0,1,75.08,32.48Z"/><path class="cls-1" d="M70.57,26.65a.3.3,0,0,1-.22-.51L73.5,23a.3.3,0,1,1,.43.43l-3.15,3.15A.29.29,0,0,1,70.57,26.65Z"/><path class="cls-1" d="M64.7,22.19a.28.28,0,0,1-.15,0,.29.29,0,0,1-.11-.41l2.22-3.86a.31.31,0,1,1,.53.31L65,22A.29.29,0,0,1,64.7,22.19Z"/><path class="cls-1" d="M57.88,19.4H57.8a.3.3,0,0,1-.22-.37l1.15-4.3a.33.33,0,0,1,.38-.22.31.31,0,0,1,.21.38l-1.15,4.3A.31.31,0,0,1,57.88,19.4Z"/></g></svg>