<svg xmlns="http://www.w3.org/2000/svg" xmlns:xlink="http://www.w3.org/1999/xlink" width="33" height="46" viewBox="0 0 33 46"><defs><path id="20t7a" d="M922 587.8V555h32.8v32.8z"/><path id="20t7d" d="M950.06 587.8a.28.28 0 0 1 0-.55 4.2 4.2 0 0 0 4.19-4.19v-23.31a4.2 4.2 0 0 0-4.19-4.2h-23.31a4.2 4.2 0 0 0-4.2 4.2v23.31a4.2 4.2 0 0 0 4.2 4.19.28.28 0 0 1 0 .56 4.75 4.75 0 0 1-4.75-4.75v-23.31a4.75 4.75 0 0 1 4.75-4.75h23.31a4.75 4.75 0 0 1 4.75 4.75v23.31a4.75 4.75 0 0 1-4.75 4.75"/><path id="20t7e" d="M951.08 583.77h-1.22a.28.28 0 0 1 0-.56h.67v-2.53h-24.38v2.53h.79a.28.28 0 1 1 0 .56h-1.35v-3.65h25.5z"/><path id="20t7f" d="M938.4 560.93a7.15 7.15 0 1 1 0 14.3 7.15 7.15 0 0 1 0-14.3zm0 14.84a7.7 7.7 0 1 0-.01-15.42 7.7 7.7 0 0 0 .02 15.41z"/><path id="20t7g" d="M938.4 563.1a4.97 4.97 0 1 1 0 9.95 4.97 4.97 0 0 1 0-9.95zm0 10.49a5.53 5.53 0 1 0 0-11.06 5.53 5.53 0 0 0 0 11.06z"/><path id="20t7h" d="M949.84 555.56v3.66a1.14 1.14 0 0 1-2.27 0v-3.66zm-1.14 5.35c.94 0 1.7-.76 1.7-1.69V555H947v4.22c0 .93.76 1.7 1.7 1.7z"/><path id="20t7b" d="M922 600.69h32.8V555H922z"/><path id="20t7j" d="M927.23 582.22h22.36v17.91h-22.36zm-.56 18.47h23.48v-19.03h-23.48z"/><path id="20t7k" d="M929.02 582.22h18.77v13h-18.77zm-.56 13.55h19.88v-14.11h-19.88z"/><path id="20t7l" d="M954.53 578.35h-32.25a.28.28 0 0 1 0-.56h32.25a.28.28 0 0 1 0 .56"/><path id="20t7m" d="M927.14 558.88a.74.74 0 0 1 0 1.47.74.74 0 0 1 0-1.47zm0 2.03a1.3 1.3 0 1 0 0-2.6 1.3 1.3 0 0 0 0 2.6z"/><clipPath id="20t7c"><use xlink:href="#20t7a"/></clipPath><clipPath id="20t7i"><use xlink:href="#20t7b"/></clipPath></defs><g><g transform="translate(-922 -555)"/><g clip-path="url(#20t7c)" transform="translate(-922 -555)"><use xlink:href="#20t7d"/></g><g transform="translate(-922 -555)"><use xlink:href="#20t7e"/></g><g transform="translate(-922 -555)"><use xlink:href="#20t7f"/></g><g transform="translate(-922 -555)"><use xlink:href="#20t7g"/></g><g transform="translate(-922 -555)"><use xlink:href="#20t7h"/></g><g transform="translate(-922 -555)"/><g clip-path="url(#20t7i)" transform="translate(-922 -555)"><use xlink:href="#20t7j"/></g><g clip-path="url(#20t7i)" transform="translate(-922 -555)"><use xlink:href="#20t7k"/></g><g clip-path="url(#20t7i)" transform="translate(-922 -555)"><use xlink:href="#20t7l"/></g><g clip-path="url(#20t7i)" transform="translate(-922 -555)"><use xlink:href="#20t7m"/></g></g></svg>