<svg xmlns="http://www.w3.org/2000/svg" xmlns:xlink="http://www.w3.org/1999/xlink" width="45" height="44" viewBox="0 0 45 44"><defs><path id="wl60a" d="M927.94 713h32.68v-41.94h-32.68z"/><path id="wl60d" d="M960.62 713h-32.68v-2.77c0-.15.12-.27.27-.27.14 0 .26.12.26.27v2.23h31.62V671.6h-1.97a.27.27 0 0 1-.27-.27c0-.15.12-.27.27-.27h2.5z"/><path id="wl60b" d="M916 713h45v-44h-45z"/><path id="wl60f" d="M925.54 669.54h31.92v40.92h-31.92zM925 711h33v-42h-33z"/><path id="wl60g" d="M952.73 677.5h-21.46c-.15 0-.27-.11-.27-.25s.12-.25.27-.25h21.46c.15 0 .27.11.27.25s-.12.25-.27.25"/><path id="wl60h" d="M952.73 681.5h-21.46c-.15 0-.27-.11-.27-.25s.12-.25.27-.25h21.46c.15 0 .27.11.27.25s-.12.25-.27.25"/><path id="wl60i" d="M952.73 684.5h-21.46c-.15 0-.27-.11-.27-.25s.12-.25.27-.25h21.46c.15 0 .27.11.27.25s-.12.25-.27.25"/><path id="wl60j" d="M942.5 692.55a5.96 5.96 0 1 1-.01 11.92 5.96 5.96 0 0 1 .01-11.92zm0 12.45a6.5 6.5 0 1 0-.02-13.02 6.5 6.5 0 0 0 .02 13.02z"/><path id="wl60k" d="M917 679.69h3.2V690h.8v-11h-4z"/><path id="wl60l" d="M916.52 680.54l2 .05v27.5l-1.02 2.58-1.02-2.58zm2.46 27.72l.02-27.67c0-.33-.23-.59-.52-.59h-1.96c-.29 0-.52.26-.52.59v27.56l1.5 3.85z"/><clipPath id="wl60c"><use xlink:href="#wl60a"/></clipPath><clipPath id="wl60e"><use xlink:href="#wl60b"/></clipPath></defs><g><g transform="translate(-916 -669)"/><g clip-path="url(#wl60c)" transform="translate(-916 -669)"><use xlink:href="#wl60d"/></g><g transform="translate(-916 -669)"/><g clip-path="url(#wl60e)" transform="translate(-916 -669)"><use xlink:href="#wl60f"/></g><g clip-path="url(#wl60e)" transform="translate(-916 -669)"><use xlink:href="#wl60g"/></g><g clip-path="url(#wl60e)" transform="translate(-916 -669)"><use xlink:href="#wl60h"/></g><g clip-path="url(#wl60e)" transform="translate(-916 -669)"><use xlink:href="#wl60i"/></g><g clip-path="url(#wl60e)" transform="translate(-916 -669)"><use xlink:href="#wl60j"/></g><g clip-path="url(#wl60e)" transform="translate(-916 -669)"><use xlink:href="#wl60k"/></g><g clip-path="url(#wl60e)" transform="translate(-916 -669)"><use xlink:href="#wl60l"/></g></g></svg>