<svg xmlns="http://www.w3.org/2000/svg" xmlns:xlink="http://www.w3.org/1999/xlink" width="44" height="46" viewBox="0 0 44 46"><defs><path id="6phmd" d="M449.7 691.98h-2.3v2.32h-6.79l6.68-15.42c.81.28 1.7.28 2.52 0l6.68 15.42h-6.8zm.4-13.83l-.25.12c-.83.35-1.77.35-2.6 0l-.25-.12-7.23 16.7h8.2v-2.31h1.17v2.32h8.2zm-.96 19.64h-1.18v-2.31h-8.46l-5.46 12.6v-3.18l4.1-9.42h-4.2v-.62h4.47l7.55-17.38.07-.15-.1-.12a3.24 3.24 0 0 1 2.16-5.16l.24-.03v-2.46h.44v2.46l.24.03c1.6.23 2.8 1.61 2.8 3.22 0 .57-.15 1.12-.45 1.64l-.07.12 7.39 17.65.07.17h4.42v.62H459l4.05 9.68v2.94l-5.46-12.62h-8.46zm14.48 7.3l-3.77-9.06h3.87v-1.73h-4.6l-7.21-17.23c.3-.57.46-1.17.46-1.8 0-1.8-1.29-3.37-3.04-3.73V669h-1.55v2.54a3.77 3.77 0 0 0-2.38 5.86l-7.36 16.9h-4.66v1.73h3.9l-3.78 8.7-.02 6.04 6.38-14.74h7.55v2.32h2.28v-2.32h7.55l6.38 14.74z"/><path id="6phma" d="M429.78 714.55H427v-.56h2.78v.56z"/><path id="6phmf" d="M429.5 714.55h-2.22a.28.28 0 1 1 0-.56h2.22a.28.28 0 0 1 0 .56"/><path id="6phmb" d="M463.64 714.55h-30.18v-.56h30.18v.56z"/><path id="6phmh" d="M433.74 714.55a.28.28 0 1 1 0-.56h4.23a.28.28 0 0 1 0 .56zm8.46 0a.28.28 0 0 1 0-.56h4.24a.28.28 0 0 1 0 .56zm8.47 0a.28.28 0 0 1 0-.56h4.23a.28.28 0 0 1 0 .56zm8.46 0a.28.28 0 0 1 0-.56h4.23a.28.28 0 0 1 0 .56z"/><path id="6phmc" d="M470.1 714.55h-2.79v-.56h2.78v.56z"/><path id="6phmj" d="M469.81 714.55h-2.22a.28.28 0 0 1 0-.56h2.23a.28.28 0 0 1 0 .56"/><path id="6phmk" d="M448.55 673.43a1.77 1.77 0 1 1 0 3.54 1.77 1.77 0 0 1 0-3.54zm0 4.1a2.33 2.33 0 1 0 0-4.66 2.33 2.33 0 0 0 0 4.65z"/><clipPath id="6phme"><use xlink:href="#6phma"/></clipPath><clipPath id="6phmg"><use xlink:href="#6phmb"/></clipPath><clipPath id="6phmi"><use xlink:href="#6phmc"/></clipPath></defs><g><g transform="translate(-427 -669)"><use xlink:href="#6phmd"/></g><g transform="translate(-427 -669)"/><g clip-path="url(#6phme)" transform="translate(-427 -669)"><use xlink:href="#6phmf"/></g><g transform="translate(-427 -669)"/><g clip-path="url(#6phmg)" transform="translate(-427 -669)"><use xlink:href="#6phmh"/></g><g transform="translate(-427 -669)"/><g clip-path="url(#6phmi)" transform="translate(-427 -669)"><use xlink:href="#6phmj"/></g><g transform="translate(-427 -669)"><use xlink:href="#6phmk"/></g></g></svg>