<svg xmlns="http://www.w3.org/2000/svg" xmlns:xlink="http://www.w3.org/1999/xlink" width="235" height="90" viewBox="0 0 235 90"><defs><path id="gbuka" d="M772.32 770.32h72"/><path id="gbukb" d="M952.32 770.32h54"/><path id="gbukc" d="M904.4 750.76l28.84 28.87a6.02 6.02 0 0 1 0 8.48 6.02 6.02 0 0 1-8.49 0l-28.83-28.87"/><path id="gbukd" d="M905.12 712.05a36 36 0 1 1-50.94 50.9 36 36 0 0 1 50.94-50.9"/><path id="gbuke" d="M905.12 712.05a36 36 0 1 1-50.94 50.9 36 36 0 0 1 50.94-50.9z"/><path id="gbukf" d="M900.87 716.3a30 30 0 1 1-42.44 42.4 30 30 0 0 1 42.44-42.4"/><path id="gbukg" d="M900.87 716.3a30 30 0 1 1-42.44 42.4 30 30 0 0 1 42.44-42.4z"/><path id="gbukh" d="M874.81 719.42l3.19 9.54"/><path id="gbuki" d="M877.99 716.23l6.38 19.09"/></defs><g><g transform="translate(-772 -701)"><use fill="#fff" fill-opacity="0" stroke="#b49740" stroke-linecap="round" stroke-miterlimit="50" stroke-width=".64" xlink:href="#gbuka"/></g><g transform="translate(-772 -701)"><use fill="#fff" fill-opacity="0" stroke="#b49740" stroke-linecap="round" stroke-miterlimit="50" stroke-width=".64" xlink:href="#gbukb"/></g><g transform="translate(-772 -701)"><use fill="#fff" xlink:href="#gbukc"/></g><g transform="translate(-772 -701)"><use fill="#fff" fill-opacity="0" stroke="#b49740" stroke-linecap="round" stroke-miterlimit="50" xlink:href="#gbukc"/></g><g transform="translate(-772 -701)"><use fill="#fff" xlink:href="#gbukd"/></g><g transform="translate(-772 -701)"><use fill="#fff" fill-opacity="0" stroke="#b49740" stroke-linecap="round" stroke-miterlimit="50" xlink:href="#gbuke"/></g><g transform="translate(-772 -701)"><use fill="#fff" xlink:href="#gbukf"/></g><g transform="translate(-772 -701)"><use fill="#fff" fill-opacity="0" stroke="#b49740" stroke-linecap="round" stroke-miterlimit="50" xlink:href="#gbukg"/></g><g transform="translate(-772 -701)"><use fill="#fff" fill-opacity="0" stroke="#b49740" stroke-linecap="round" stroke-miterlimit="50" xlink:href="#gbukh"/></g><g transform="translate(-772 -701)"><use fill="#fff" fill-opacity="0" stroke="#b49740" stroke-linecap="round" stroke-miterlimit="50" xlink:href="#gbuki"/></g></g></svg>