
<svg width="41px" height="40px" viewBox="0 0 41 40" version="1.1" xmlns="http://www.w3.org/2000/svg" xmlns:xlink="http://www.w3.org/1999/xlink">
    <!-- Generator: Sketch 48.2 (47327) - http://www.bohemiancoding.com/sketch -->
    <desc>Created with Sketch.</desc>
    <defs>
        <polygon id="path-1" points="0 39.4285714 40.8852973 39.4285714 40.8852973 0 0 0"></polygon>
    </defs>
    <g id="CoinsAge" stroke="none" stroke-width="1" fill="none" fill-rule="evenodd">
        <g id="Каталог-Товар" transform="translate(-723.000000, -868.000000)">
            <g id="Page-1" transform="translate(723.000000, 868.000000)">
                <path d="M20.079973,12.0898286 L19.5124054,12.0898286 L19.5124054,6.85325714 C19.5124054,4.22697143 17.3897027,2.08982857 14.7811622,2.08982857 C12.1714865,2.08982857 10.0487838,4.22697143 10.0487838,6.85325714 L10.0487838,12.0898286 L9.48121622,12.0898286 L9.48121622,6.85325714 C9.48121622,3.91154286 11.8593243,1.5184 14.7811622,1.5184 C17.703,1.5184 20.079973,3.91154286 20.079973,6.85325714 L20.079973,12.0898286 Z" id="Fill-1" fill="#B49740"></path>
                <path d="M21.5598486,13.6082286 L20.9922811,13.6082286 L20.9922811,6.82537143 C20.9922811,3.37737143 18.2066595,0.571657143 14.7808216,0.571657143 C11.3561189,0.571657143 8.56936216,3.37737143 8.56936216,6.82537143 L8.56936216,13.6082286 L8.00179459,13.6082286 L8.00179459,6.82537143 C8.00179459,3.06194286 11.0428216,0.000228571429 14.7808216,0.000228571429 C18.5188216,0.000228571429 21.5598486,3.06194286 21.5598486,6.82537143 L21.5598486,13.6082286 Z" id="Fill-3" fill="#B49740"></path>
                <mask id="mask-2" fill="white">
                    <use xlink:href="#path-1"></use>
                </mask>
                <g id="Clip-6"></g>
                <polygon id="Fill-5" fill="#F2F2F2" mask="url(#mask-2)" points="0.283783784 35.0194286 29.2785405 35.0194286 29.2785405 11.4102857 0.283783784 11.4102857"></polygon>
                <path d="M0.567567568,34.7337143 L28.9947568,34.7337143 L28.9947568,11.696 L0.567567568,11.696 L0.567567568,34.7337143 Z M0,35.3051429 L29.5623243,35.3051429 L29.5623243,11.1245714 L0,11.1245714 L0,35.3051429 Z" id="Fill-7" fill="#B49740" mask="url(#mask-2)"></path>
                <path d="M40.3560973,23.5998857 L26.9842054,23.5998857 C26.8491243,23.5998857 26.7390162,23.4890286 26.7390162,23.3530286 L26.7390162,21.6261714 C26.7390162,21.4901714 26.8491243,21.3793143 26.9842054,21.3793143 L40.3560973,21.3793143 C40.4911784,21.3793143 40.6012865,21.4901714 40.6012865,21.6261714 L40.6012865,23.3530286 C40.6012865,23.4890286 40.4911784,23.5998857 40.3560973,23.5998857" id="Fill-8" fill="#FFFFFF" mask="url(#mask-2)"></path>
                <path d="M40.3172757,21.6261714 L26.9839784,21.6650286 L27.022573,23.3530286 L40.3172757,23.3141714 L40.3172757,21.6261714 Z M40.3558703,23.8856 L26.9839784,23.8856 C26.6922486,23.8856 26.4550054,23.6467429 26.4550054,23.3530286 L26.4550054,21.6261714 C26.4550054,21.3324571 26.6922486,21.0936 26.9839784,21.0936 L40.3558703,21.0936 C40.6476,21.0936 40.8848432,21.3324571 40.8848432,21.6261714 L40.8848432,23.3530286 C40.8848432,23.6467429 40.6476,23.8856 40.3558703,23.8856 Z" id="Fill-9" fill="#B49740" mask="url(#mask-2)"></path>
                <path d="M40.3560973,25.8203429 L26.9842054,25.8203429 C26.8491243,25.8203429 26.7390162,25.7094857 26.7390162,25.5734857 L26.7390162,23.8466286 C26.7390162,23.7106286 26.8491243,23.5997714 26.9842054,23.5997714 L40.3560973,23.5997714 C40.4911784,23.5997714 40.6012865,23.7106286 40.6012865,23.8466286 L40.6012865,25.5734857 C40.6012865,25.7094857 40.4911784,25.8203429 40.3560973,25.8203429" id="Fill-10" fill="#FFFFFF" mask="url(#mask-2)"></path>
                <path d="M40.3172757,23.8465143 L26.9839784,23.8853714 L27.022573,25.5733714 L40.3172757,25.5345143 L40.3172757,23.8465143 Z M40.3558703,26.1059429 L26.9839784,26.1059429 C26.6922486,26.1059429 26.4550054,25.8670857 26.4550054,25.5733714 L26.4550054,23.8465143 C26.4550054,23.5528 26.6922486,23.3139429 26.9839784,23.3139429 L40.3558703,23.3139429 C40.6476,23.3139429 40.8848432,23.5528 40.8848432,23.8465143 L40.8848432,25.5733714 C40.8848432,25.8670857 40.6476,26.1059429 40.3558703,26.1059429 Z" id="Fill-11" fill="#B49740" mask="url(#mask-2)"></path>
                <path d="M40.3560973,28.0406857 L26.9842054,28.0406857 C26.8491243,28.0406857 26.7390162,27.9298286 26.7390162,27.7938286 L26.7390162,26.0669714 C26.7390162,25.9309714 26.8491243,25.8201143 26.9842054,25.8201143 L40.3560973,25.8201143 C40.4911784,25.8201143 40.6012865,25.9309714 40.6012865,26.0669714 L40.6012865,27.7938286 C40.6012865,27.9298286 40.4911784,28.0406857 40.3560973,28.0406857" id="Fill-12" fill="#FFFFFF" mask="url(#mask-2)"></path>
                <path d="M40.3172757,26.0669714 L26.9839784,26.1058286 L27.022573,27.7938286 L40.3172757,27.7549714 L40.3172757,26.0669714 Z M40.3558703,28.3264 L26.9839784,28.3264 C26.6922486,28.3264 26.4550054,28.0875429 26.4550054,27.7938286 L26.4550054,26.0669714 C26.4550054,25.7732571 26.6922486,25.5344 26.9839784,25.5344 L40.3558703,25.5344 C40.6476,25.5344 40.8848432,25.7732571 40.8848432,26.0669714 L40.8848432,27.7938286 C40.8848432,28.0875429 40.6476,28.3264 40.3558703,28.3264 Z" id="Fill-13" fill="#B49740" mask="url(#mask-2)"></path>
                <path d="M40.3560973,30.2611429 L26.9842054,30.2611429 C26.8491243,30.2611429 26.7390162,30.1502857 26.7390162,30.0142857 L26.7390162,28.2874286 C26.7390162,28.1514286 26.8491243,28.0405714 26.9842054,28.0405714 L40.3560973,28.0405714 C40.4911784,28.0405714 40.6012865,28.1514286 40.6012865,28.2874286 L40.6012865,30.0142857 C40.6012865,30.1502857 40.4911784,30.2611429 40.3560973,30.2611429" id="Fill-14" fill="#FFFFFF" mask="url(#mask-2)"></path>
                <path d="M40.3172757,28.2874286 L26.9839784,28.3262857 L27.022573,30.0142857 L40.3172757,29.9754286 L40.3172757,28.2874286 Z M40.3558703,30.5468571 L26.9839784,30.5468571 C26.6922486,30.5468571 26.4550054,30.308 26.4550054,30.0142857 L26.4550054,28.2874286 C26.4550054,27.9937143 26.6922486,27.7548571 26.9839784,27.7548571 L40.3558703,27.7548571 C40.6476,27.7548571 40.8848432,27.9937143 40.8848432,28.2874286 L40.8848432,30.0142857 C40.8848432,30.308 40.6476,30.5468571 40.3558703,30.5468571 Z" id="Fill-15" fill="#B49740" mask="url(#mask-2)"></path>
                <path d="M40.3560973,32.4816 L26.9842054,32.4816 C26.8491243,32.4816 26.7390162,32.3707429 26.7390162,32.2347429 L26.7390162,30.5078857 C26.7390162,30.3718857 26.8491243,30.2610286 26.9842054,30.2610286 L40.3560973,30.2610286 C40.4911784,30.2610286 40.6012865,30.3718857 40.6012865,30.5078857 L40.6012865,32.2347429 C40.6012865,32.3707429 40.4911784,32.4816 40.3560973,32.4816" id="Fill-16" fill="#FFFFFF" mask="url(#mask-2)"></path>
                <path d="M40.3172757,30.5077714 L26.9839784,30.5466286 L27.022573,32.2346286 L40.3172757,32.1957714 L40.3172757,30.5077714 Z M40.3558703,32.7672 L26.9839784,32.7672 C26.6922486,32.7672 26.4550054,32.5283429 26.4550054,32.2346286 L26.4550054,30.5077714 C26.4550054,30.2140571 26.6922486,29.9752 26.9839784,29.9752 L40.3558703,29.9752 C40.6476,29.9752 40.8848432,30.2140571 40.8848432,30.5077714 L40.8848432,32.2346286 C40.8848432,32.5283429 40.6476,32.7672 40.3558703,32.7672 Z" id="Fill-17" fill="#B49740" mask="url(#mask-2)"></path>
                <path d="M40.3560973,34.7020571 L26.9842054,34.7020571 C26.8491243,34.7020571 26.7390162,34.5912 26.7390162,34.4552 L26.7390162,32.7283429 C26.7390162,32.5923429 26.8491243,32.4814857 26.9842054,32.4814857 L40.3560973,32.4814857 C40.4911784,32.4814857 40.6012865,32.5923429 40.6012865,32.7283429 L40.6012865,34.4552 C40.6012865,34.5912 40.4911784,34.7020571 40.3560973,34.7020571" id="Fill-18" fill="#FFFFFF" mask="url(#mask-2)"></path>
                <path d="M40.3172757,32.7282286 L26.9839784,32.7670857 L27.022573,34.4550857 L40.3172757,34.4162286 L40.3172757,32.7282286 Z M40.3558703,34.9876571 L26.9839784,34.9876571 C26.6922486,34.9876571 26.4550054,34.7488 26.4550054,34.4550857 L26.4550054,32.7282286 C26.4550054,32.4345143 26.6922486,32.1956571 26.9839784,32.1956571 L40.3558703,32.1956571 C40.6476,32.1956571 40.8848432,32.4345143 40.8848432,32.7282286 L40.8848432,34.4550857 C40.8848432,34.7488 40.6476,34.9876571 40.3558703,34.9876571 Z" id="Fill-19" fill="#B49740" mask="url(#mask-2)"></path>
                <path d="M40.3560973,36.9224 L26.9842054,36.9224 C26.8491243,36.9224 26.7390162,36.8115429 26.7390162,36.6755429 L26.7390162,34.9486857 C26.7390162,34.8126857 26.8491243,34.7018286 26.9842054,34.7018286 L40.3560973,34.7018286 C40.4911784,34.7018286 40.6012865,34.8126857 40.6012865,34.9486857 L40.6012865,36.6755429 C40.6012865,36.8115429 40.4911784,36.9224 40.3560973,36.9224" id="Fill-20" fill="#FFFFFF" mask="url(#mask-2)"></path>
                <path d="M40.3172757,34.9486857 L26.9839784,34.9875429 L27.022573,36.6755429 L40.3172757,36.6366857 L40.3172757,34.9486857 Z M40.3558703,37.2081143 L26.9839784,37.2081143 C26.6922486,37.2081143 26.4550054,36.9692571 26.4550054,36.6755429 L26.4550054,34.9486857 C26.4550054,34.6549714 26.6922486,34.4161143 26.9839784,34.4161143 L40.3558703,34.4161143 C40.6476,34.4161143 40.8848432,34.6549714 40.8848432,34.9486857 L40.8848432,36.6755429 C40.8848432,36.9692571 40.6476,37.2081143 40.3558703,37.2081143 Z" id="Fill-21" fill="#B49740" mask="url(#mask-2)"></path>
                <path d="M32.6506865,33.0368 C32.6506865,36.4093714 29.9343081,39.1430857 26.5856595,39.1430857 C23.2358757,39.1430857 20.5206324,36.4093714 20.5206324,33.0368 C20.5206324,29.6642286 23.2358757,26.9305143 26.5856595,26.9305143 C29.9343081,26.9305143 32.6506865,29.6642286 32.6506865,33.0368" id="Fill-22" fill="#FFFFFF" mask="url(#mask-2)"></path>
                <path d="M26.5858865,27.2165714 C23.3972919,27.2165714 20.8046432,29.828 20.8046432,33.0371429 C20.8046432,36.2462857 23.3972919,38.8577143 26.5858865,38.8577143 C29.7744811,38.8577143 32.3671297,36.2462857 32.3671297,33.0371429 C32.3671297,29.828 29.7744811,27.2165714 26.5858865,27.2165714 M26.5858865,39.4291429 C23.0851297,39.4291429 20.2370757,36.5617143 20.2370757,33.0371429 C20.2370757,29.5125714 23.0851297,26.6451429 26.5858865,26.6451429 C30.0866432,26.6451429 32.9346973,29.5125714 32.9346973,33.0371429 C32.9346973,36.5617143 30.0866432,39.4291429 26.5858865,39.4291429" id="Fill-23" fill="#B49740" mask="url(#mask-2)"></path>
                <path d="M31.5476757,33.0368 C31.5476757,35.7956571 29.3262162,38.0333714 26.586,38.0333714 C23.8457838,38.0333714 21.6231892,35.7956571 21.6231892,33.0368 C21.6231892,30.2768 23.8457838,28.0402286 26.586,28.0402286 C29.3262162,28.0402286 31.5476757,30.2768 31.5476757,33.0368" id="Fill-24" fill="#FFFFFF" mask="url(#mask-2)"></path>
                <path d="M26.5858865,28.3264 C24.0068595,28.3264 21.9068595,30.4395429 21.9068595,33.0372571 C21.9068595,35.6338286 24.0068595,37.7469714 26.5858865,37.7469714 C29.1649135,37.7469714 31.2637784,35.6338286 31.2637784,33.0372571 C31.2637784,30.4395429 29.1649135,28.3264 26.5858865,28.3264 M26.5858865,38.3184 C23.692427,38.3184 21.3392919,35.9492571 21.3392919,33.0372571 C21.3392919,30.1241143 23.692427,27.7549714 26.5858865,27.7549714 C29.4782108,27.7549714 31.8313459,30.1241143 31.8313459,33.0372571 C31.8313459,35.9492571 29.4782108,38.3184 26.5858865,38.3184" id="Fill-25" fill="#B49740" mask="url(#mask-2)"></path>
                <path d="M18.3727297,20.8722286 C18.3727297,18.8745143 16.7642432,17.2562286 14.7811622,17.2562286 C12.7969459,17.2562286 11.1895946,18.8745143 11.1895946,20.8722286 C11.1895946,22.4459429 12.1885135,23.7853714 13.5835946,24.2813714 L13.5835946,29.3099429 L15.9787297,29.3099429 L15.9787297,24.2813714 C17.3726757,23.7853714 18.3727297,22.4459429 18.3727297,20.8722286" id="Fill-26" fill="#FFFFFF" mask="url(#mask-2)"></path>
                <path d="M13.8677189,29.024 L15.6941514,29.024 L15.6941514,24.08 L15.8837189,24.0125714 C17.2027459,23.5428571 18.0892865,22.2811429 18.0892865,20.872 C18.0892865,19.0354286 16.6045297,17.5417143 14.7815027,17.5417143 C12.9573405,17.5417143 11.4737189,19.0354286 11.4737189,20.872 C11.4737189,22.2811429 12.3591243,23.5428571 13.6781514,24.0125714 L13.8677189,24.08 L13.8677189,29.024 Z M16.2617189,29.5954286 L13.3001514,29.5954286 L13.3001514,24.4777143 C11.8596649,23.8788571 10.9061514,22.4537143 10.9061514,20.872 C10.9061514,18.7211429 12.6440432,16.9702857 14.7815027,16.9702857 C16.9189622,16.9702857 18.6568541,18.7211429 18.6568541,20.872 C18.6568541,22.4537143 17.7022054,23.8788571 16.2617189,24.4777143 L16.2617189,29.5954286 Z" id="Fill-27" fill="#B49740" mask="url(#mask-2)"></path>
            </g>
        </g>
    </g>
</svg>
