
<svg width="36px" height="38px" viewBox="0 0 36 38" version="1.1" xmlns="http://www.w3.org/2000/svg" xmlns:xlink="http://www.w3.org/1999/xlink">
    <!-- Generator: Sketch 48.2 (47327) - http://www.bohemiancoding.com/sketch -->
    <desc>Created with Sketch.</desc>
    <defs>
        <polygon id="path-1" points="0.000203165257 0.401 26.9439431 0.401 26.9439431 27.3443 0.000203165257 27.3443 0.000203165257 0.401"></polygon>
        <polygon id="path-3" points="14.254 0.154831688 14.254 14.9999 0.354332609 14.9999 0.354332609 0.154831688 14.254 0.154831688"></polygon>
    </defs>
    <g id="CoinsAge" stroke="none" stroke-width="1" fill="none" fill-rule="evenodd">
        <g id="Каталог-Товар" transform="translate(-1117.000000, -869.000000)">
            <g id="Page-1" transform="translate(1117.000000, 868.000000)">
                <path d="M23.3331,5.6816 C28.1901,11.1296 27.7111,19.4836 22.2631,24.3406 C16.8131,29.1966 8.4601,28.7176 3.6041,23.2686 C-1.2529,17.8206 -0.7729,9.4666 4.6751,4.6106 C10.1231,-0.2464 18.4771,0.2326 23.3331,5.6816" id="Fill-1" fill="#FFFFFF"></path>
                <g id="Group-5" transform="translate(0.000000, 0.599200)">
                    <mask id="mask-2" fill="white">
                        <use xlink:href="#path-1"></use>
                    </mask>
                    <g id="Clip-4"></g>
                    <path d="M13.4513,0.9193 C10.2713,0.9193 7.2403,2.0703 4.8473,4.2043 C-0.4857,8.9583 -0.9567,17.1643 3.7973,22.4973 C6.3523,25.3643 9.9073,26.8263 13.4753,26.8263 C16.5453,26.8273 19.6243,25.7463 22.0903,23.5473 C24.6733,21.2453 26.2053,18.0733 26.4033,14.6183 C26.6013,11.1633 25.4423,7.8373 23.1393,5.2543 C20.8373,2.6713 17.6663,1.1393 14.2113,0.9403 C13.9573,0.9263 13.7043,0.9193 13.4513,0.9193 M13.4753,27.3443 C9.7643,27.3443 6.0683,25.8243 3.4103,22.8423 C-1.5337,17.2953 -1.0437,8.7613 4.5023,3.8173 C7.1883,1.4223 10.6473,0.2173 14.2413,0.4233 C17.8343,0.6293 21.1323,2.2233 23.5273,4.9093 C25.9223,7.5963 27.1273,11.0553 26.9213,14.6483 C26.7153,18.2413 25.1213,21.5393 22.4343,23.9343 C19.8703,26.2203 16.6673,27.3443 13.4753,27.3443" id="Fill-3" fill="#B49740" mask="url(#mask-2)"></path>
                </g>
                <path d="M21.6544,7.1782 C25.6844,11.6992 25.2864,18.6312 20.7654,22.6612 C16.2444,26.6912 9.3124,26.2932 5.2824,21.7722 C1.2534,17.2512 1.6504,10.3192 6.1714,6.2892 C10.6924,2.2592 17.6244,2.6572 21.6544,7.1782" id="Fill-6" fill="#F2F2F2"></path>
                <path d="M13.4542,3.768 C10.8262,3.768 8.3222,4.72 6.3442,6.483 C1.9362,10.411 1.5482,17.193 5.4752,21.6 C9.4042,26.007 16.1852,26.396 20.5932,22.468 C22.7272,20.564 23.9942,17.944 24.1582,15.089 C24.3212,12.234 23.3642,9.485 21.4612,7.351 C19.5582,5.216 16.9372,3.95 14.0822,3.786 C13.8722,3.774 13.6632,3.768 13.4542,3.768 M13.4752,25.695 C10.3832,25.695 7.3042,24.429 5.0892,21.945 C0.9712,17.324 1.3792,10.215 5.9992,6.096 C8.2372,4.101 11.1202,3.097 14.1112,3.268 C17.1052,3.44 19.8522,4.768 21.8482,7.006 C23.8432,9.244 24.8472,12.125 24.6752,15.119 C24.5032,18.112 23.1762,20.859 20.9372,22.854 C18.8022,24.759 16.1332,25.695 13.4752,25.695" id="Fill-8" fill="#B49740"></path>
                <path d="M25.0948,24.0136 L34.4068,34.4586 C35.2598,35.4166 35.1748,36.8976 34.2168,37.7516 C33.2598,38.6046 31.7788,38.5196 30.9248,37.5626 L21.6138,27.1176" id="Fill-10" fill="#FFFFFF"></path>
                <g id="Group-14" transform="translate(21.000000, 23.599200)">
                    <mask id="mask-4" fill="white">
                        <use xlink:href="#path-3"></use>
                    </mask>
                    <g id="Clip-13"></g>
                    <path d="M11.67,14.9999 C11.619,14.9999 11.568,14.9989 11.517,14.9959 C10.824,14.9559 10.19,14.6499 9.732,14.1359 L0.42,3.6899 C0.325,3.5839 0.334,3.4199 0.441,3.3249 C0.548,3.2289 0.712,3.2389 0.807,3.3459 L10.118,13.7909 C10.484,14.2019 10.992,14.4459 11.547,14.4789 C12.1,14.5099 12.634,14.3259 13.045,13.9589 C13.456,13.5919 13.7,13.0849 13.733,12.5299 C13.764,11.9759 13.58,11.4429 13.213,11.0319 L3.901,0.5869 C3.807,0.4799 3.816,0.3159 3.923,0.2209 C4.029,0.1249 4.193,0.1349 4.289,0.2419 L13.6,10.6869 C14.059,11.2019 14.289,11.8669 14.25,12.5599 C14.21,13.2529 13.904,13.8869 13.39,14.3459 C12.913,14.7709 12.308,14.9999 11.67,14.9999" id="Fill-12" fill="#B49740" mask="url(#mask-4)"></path>
                </g>
            </g>
        </g>
    </g>
</svg>
