
<svg width="37px" height="32px" viewBox="0 0 37 32" version="1.1" xmlns="http://www.w3.org/2000/svg" xmlns:xlink="http://www.w3.org/1999/xlink">
    <!-- Generator: Sketch 48.2 (47327) - http://www.bohemiancoding.com/sketch -->
    <desc>Created with Sketch.</desc>
    <defs>
        <polygon id="path-1" points="0.368 3 14.5 3 14.5 1.66565 14.5 0.3313 0.368 0.3313"></polygon>
    </defs>
    <g id="CoinsAge" stroke="none" stroke-width="1" fill="none" fill-rule="evenodd">
        <g id="Каталог-Товар" transform="translate(-337.000000, -873.000000)">
            <g id="Page-1" transform="translate(337.000000, 873.000000)">
                <polygon id="Fill-1" fill="#F2F2F2" points="0.25 28.134 28.134 28.134 28.134 0.25 0.25 0.25"></polygon>
                <path d="M0,28.384 L28.384,28.384 L28.384,0.001 L0,0.001 L0,28.384 Z M0.5,27.884 L27.883,27.884 L27.883,0.5 L0.5,0.5 L0.5,27.884 Z" id="Fill-2" fill="#B49740"></path>
                <polygon id="Fill-3" fill="#FFFFFF" points="10.2321 0.2497 10.2321 15.8977 14.2251 13.5437 18.0571 15.8977 18.0571 0.2497"></polygon>
                <path d="M9.9828,0.0004 L9.9828,16.3364 L14.2228,13.8364 L18.3068,16.3454 L18.3068,0.0004 L9.9828,0.0004 Z M10.4818,0.4994 L17.8068,0.4994 L17.8068,15.4514 L14.2278,13.2524 L10.4818,15.4604 L10.4818,0.4994 Z" id="Fill-4" fill="#B49740"></path>
                <g id="Group-34" transform="translate(22.000000, 15.792000)">
                    <path d="M14.0088,2.7373 L0.8588,2.7373 C0.7268,2.7373 0.6178,2.6293 0.6178,2.4963 L0.6178,0.8093 C0.6178,0.6773 0.7268,0.5693 0.8588,0.5693 L14.0088,0.5693 C14.1418,0.5693 14.2498,0.6773 14.2498,0.8093 L14.2498,2.4963 C14.2498,2.6293 14.1418,2.7373 14.0088,2.7373" id="Fill-5" fill="#FFFFFF"></path>
                    <path d="M14,0.8096 L0.858,0.8186 L0.868,2.4966 L14,2.4876 L14,0.8096 Z M14.009,2.9876 L0.858,2.9876 C0.588,2.9876 0.368,2.7676 0.368,2.4966 L0.368,0.8096 C0.368,0.5386 0.588,0.3186 0.858,0.3186 L14.009,0.3186 C14.279,0.3186 14.5,0.5386 14.5,0.8096 L14.5,2.4966 C14.5,2.7676 14.279,2.9876 14.009,2.9876 Z" id="Fill-7" fill="#B49740"></path>
                    <path d="M14.0088,4.9063 L0.8588,4.9063 C0.7268,4.9063 0.6178,4.7983 0.6178,4.6653 L0.6178,2.9783 C0.6178,2.8453 0.7268,2.7373 0.8588,2.7373 L14.0088,2.7373 C14.1418,2.7373 14.2498,2.8453 14.2498,2.9783 L14.2498,4.6653 C14.2498,4.7983 14.1418,4.9063 14.0088,4.9063" id="Fill-9" fill="#FFFFFF"></path>
                    <path d="M14,2.9785 L0.858,2.9875 L0.868,4.6655 L14,4.6565 L14,2.9785 Z M14.009,5.1565 L0.858,5.1565 C0.588,5.1565 0.368,4.9365 0.368,4.6655 L0.368,2.9785 C0.368,2.7075 0.588,2.4875 0.858,2.4875 L14.009,2.4875 C14.279,2.4875 14.5,2.7075 14.5,2.9785 L14.5,4.6655 C14.5,4.9365 14.279,5.1565 14.009,5.1565 Z" id="Fill-11" fill="#B49740"></path>
                    <path d="M14.0088,7.0747 L0.8588,7.0747 C0.7268,7.0747 0.6178,6.9667 0.6178,6.8337 L0.6178,5.1467 C0.6178,5.0147 0.7268,4.9067 0.8588,4.9067 L14.0088,4.9067 C14.1418,4.9067 14.2498,5.0147 14.2498,5.1467 L14.2498,6.8337 C14.2498,6.9667 14.1418,7.0747 14.0088,7.0747" id="Fill-13" fill="#FFFFFF"></path>
                    <path d="M14,5.147 L0.858,5.156 L0.868,6.834 L14,6.825 L14,5.147 Z M14.009,7.325 L0.858,7.325 C0.588,7.325 0.368,7.105 0.368,6.834 L0.368,5.147 C0.368,4.876 0.588,4.656 0.858,4.656 L14.009,4.656 C14.279,4.656 14.5,4.876 14.5,5.147 L14.5,6.834 C14.5,7.105 14.279,7.325 14.009,7.325 Z" id="Fill-15" fill="#B49740"></path>
                    <path d="M14.0088,9.2437 L0.8588,9.2437 C0.7268,9.2437 0.6178,9.1357 0.6178,9.0027 L0.6178,7.3157 C0.6178,7.1837 0.7268,7.0747 0.8588,7.0747 L14.0088,7.0747 C14.1418,7.0747 14.2498,7.1837 14.2498,7.3157 L14.2498,9.0027 C14.2498,9.1357 14.1418,9.2437 14.0088,9.2437" id="Fill-17" fill="#FFFFFF"></path>
                    <path d="M14,7.3159 L0.858,7.3249 L0.868,9.0029 L14,8.9939 L14,7.3159 Z M14.009,9.4939 L0.858,9.4939 C0.588,9.4939 0.368,9.2739 0.368,9.0029 L0.368,7.3159 C0.368,7.0449 0.588,6.8249 0.858,6.8249 L14.009,6.8249 C14.279,6.8249 14.5,7.0449 14.5,7.3159 L14.5,9.0029 C14.5,9.2739 14.279,9.4939 14.009,9.4939 Z" id="Fill-19" fill="#B49740"></path>
                    <path d="M14.0088,11.4126 L0.8588,11.4126 C0.7268,11.4126 0.6178,11.3046 0.6178,11.1716 L0.6178,9.4846 C0.6178,9.3516 0.7268,9.2436 0.8588,9.2436 L14.0088,9.2436 C14.1418,9.2436 14.2498,9.3516 14.2498,9.4846 L14.2498,11.1716 C14.2498,11.3046 14.1418,11.4126 14.0088,11.4126" id="Fill-21" fill="#FFFFFF"></path>
                    <path d="M14,9.4849 L0.858,9.4939 L0.868,11.1719 L14,11.1629 L14,9.4849 Z M14.009,11.6629 L0.858,11.6629 C0.588,11.6629 0.368,11.4429 0.368,11.1719 L0.368,9.4849 C0.368,9.2139 0.588,8.9939 0.858,8.9939 L14.009,8.9939 C14.279,8.9939 14.5,9.2139 14.5,9.4849 L14.5,11.1719 C14.5,11.4429 14.279,11.6629 14.009,11.6629 Z" id="Fill-23" fill="#B49740"></path>
                    <path d="M14.0088,13.5811 L0.8588,13.5811 C0.7268,13.5811 0.6178,13.4731 0.6178,13.3401 L0.6178,11.6531 C0.6178,11.5211 0.7268,11.4131 0.8588,11.4131 L14.0088,11.4131 C14.1418,11.4131 14.2498,11.5211 14.2498,11.6531 L14.2498,13.3401 C14.2498,13.4731 14.1418,13.5811 14.0088,13.5811" id="Fill-25" fill="#FFFFFF"></path>
                    <path d="M14,11.6533 L0.858,11.6623 L0.868,13.3403 L14,13.3313 L14,11.6533 Z M14.009,13.8313 L0.858,13.8313 C0.588,13.8313 0.368,13.6113 0.368,13.3403 L0.368,11.6533 C0.368,11.3823 0.588,11.1623 0.858,11.1623 L14.009,11.1623 C14.279,11.1623 14.5,11.3823 14.5,11.6533 L14.5,13.3403 C14.5,13.6113 14.279,13.8313 14.009,13.8313 Z" id="Fill-27" fill="#B49740"></path>
                    <path d="M14.0088,15.75 L0.8588,15.75 C0.7268,15.75 0.6178,15.642 0.6178,15.509 L0.6178,13.822 C0.6178,13.689 0.7268,13.581 0.8588,13.581 L14.0088,13.581 C14.1418,13.581 14.2498,13.689 14.2498,13.822 L14.2498,15.509 C14.2498,15.642 14.1418,15.75 14.0088,15.75" id="Fill-29" fill="#FFFFFF"></path>
                    <g id="Group-33" transform="translate(0.000000, 13.000000)">
                        <mask id="mask-2" fill="white">
                            <use xlink:href="#path-1"></use>
                        </mask>
                        <g id="Clip-32"></g>
                        <path d="M14,0.8223 L0.858,0.8313 L0.868,2.5093 L14,2.5003 L14,0.8223 Z M14.009,3.0003 L0.858,3.0003 C0.588,3.0003 0.368,2.7803 0.368,2.5093 L0.368,0.8223 C0.368,0.5513 0.588,0.3313 0.858,0.3313 L14.009,0.3313 C14.279,0.3313 14.5,0.5513 14.5,0.8223 L14.5,2.5093 C14.5,2.7803 14.279,3.0003 14.009,3.0003 Z" id="Fill-31" fill="#B49740" mask="url(#mask-2)"></path>
                    </g>
                </g>
            </g>
        </g>
    </g>
</svg>
