
<svg width="126px" height="40px" viewBox="0 0 126 40" version="1.1" xmlns="http://www.w3.org/2000/svg" xmlns:xlink="http://www.w3.org/1999/xlink">
    <!-- Generator: Sketch 48.2 (47327) - http://www.bohemiancoding.com/sketch -->
    <desc>Created with Sketch.</desc>
    <defs>
        <polygon id="path-1" points="0 40 125.798429 40 125.798429 0 0 0"></polygon>
    </defs>
    <g id="CoinsAge" stroke="none" stroke-width="1" fill="none" fill-rule="evenodd">
        <g id="Главная-Спецпредложения" transform="translate(-21.000000, -9.000000)">
            <g id="Group-4">
                <g id="Group-2" transform="translate(21.000000, 9.000000)">
                    <g id="Page-1">
                        <path d="M52.0821665,20.9931803 C52.0821665,18.9721967 53.5883311,17.2987541 55.6445108,17.2987541 C56.917197,17.2987541 57.6496783,17.7984262 58.3828136,18.4725246 L58.036847,18.8292459 C57.4155459,18.2272787 56.7033386,17.7780984 55.6347007,17.7780984 C53.9244877,17.7780984 52.6315275,19.1761311 52.6315275,20.9931803 C52.6315275,22.7997377 53.9447618,24.2076066 55.6445108,24.2076066 C56.6726006,24.2076066 57.3749978,23.8095738 58.0976691,23.0954754 L58.4540997,23.4423607 C57.7006904,24.1879344 56.886459,24.6876066 55.6242367,24.6876066 C53.5883311,24.6876066 52.0821665,23.0646557 52.0821665,20.9931803 Z" id="Fill-1" fill="#000000"></path>
                        <path d="M68.0454844,20.9931803 C68.0454844,19.2272787 66.7629881,17.7780984 65.002417,17.7780984 C63.2411919,17.7780984 61.9789697,19.2069508 61.9789697,20.9931803 C61.9789697,22.7584262 63.261466,24.2076066 65.0226911,24.2076066 C66.7832622,24.2076066 68.0454844,22.7794098 68.0454844,20.9931803 M61.4296088,20.9931803 C61.4296088,19.0436721 62.8644873,17.2987541 65.0226911,17.2987541 C67.1802409,17.2987541 68.5954994,19.0233443 68.5954994,20.9931803 C68.5954994,22.9426885 67.1599668,24.6876066 65.002417,24.6876066 C62.8442132,24.6876066 61.4296088,22.9630164 61.4296088,20.9931803" id="Fill-3" fill="#000000"></path>
                        <mask id="mask-2" fill="white">
                            <use xlink:href="#path-1"></use>
                        </mask>
                        <g id="Clip-6"></g>
                        <polygon id="Fill-5" fill="#000000" mask="url(#mask-2)" points="72.5071457 24.5652459 73.0368866 24.5652459 73.0368866 17.4209836 72.5071457 17.4209836"></polygon>
                        <polygon id="Fill-7" fill="#000000" mask="url(#mask-2)" points="77.2621918 17.4212459 77.7611947 17.4212459 82.6773214 23.6363279 82.6773214 17.4212459 83.1861343 17.4212459 83.1861343 24.5655082 82.7891556 24.5655082 77.7710047 18.2173115 77.7710047 24.5655082 77.2621918 24.5655082"></polygon>
                        <path d="M86.8844454,23.5242623 L87.230412,23.1262295 C88.0145594,23.8508197 88.7372306,24.1878689 89.7855945,24.1878689 C90.8542324,24.1878689 91.5867136,23.5852459 91.5867136,22.7485246 C91.5867136,21.9937705 91.1897349,21.5544262 89.5717361,21.2278689 C87.8615231,20.8809836 87.1695899,20.2993443 87.1695899,19.1970492 C87.1695899,18.1354098 88.1362036,17.3190164 89.4599019,17.3190164 C90.4978017,17.3190164 91.1799249,17.604918 91.9025962,18.1865574 L91.5664396,18.604918 C90.8947804,18.0232787 90.2231212,17.7990164 89.4389739,17.7990164 C88.39061,17.7990164 87.6986768,18.4009836 87.6986768,19.1662295 C87.6986768,19.9216393 88.0851915,20.3806557 89.7751305,20.727541 C91.4238674,21.0645902 92.1164546,21.6567213 92.1164546,22.7183607 C92.1164546,23.8711475 91.1289128,24.6672131 89.7548564,24.6672131 C88.6149324,24.6672131 87.7392249,24.2895082 86.8844454,23.5242623" id="Fill-8" fill="#000000" mask="url(#mask-2)"></path>
                        <path d="M105.811173,22.0850492 L103.938114,17.9519344 L102.055245,22.0850492 L105.811173,22.0850492 Z M103.694172,17.3702951 L104.202984,17.3702951 L107.521386,24.5650492 L106.941287,24.5650492 L106.034842,22.5643934 L101.831576,22.5643934 L100.925131,24.5650492 L100.37577,24.5650492 L103.694172,17.3702951 Z" id="Fill-9" fill="#000000" mask="url(#mask-2)"></path>
                        <path d="M110.343859,20.9931803 C110.343859,19.064 111.73819,17.2987541 113.865655,17.2987541 C115.026507,17.2987541 115.758989,17.6456393 116.47185,18.2377705 L116.125229,18.6358033 C115.565404,18.1459672 114.914019,17.7780984 113.834917,17.7780984 C112.105084,17.7780984 110.89322,19.2476066 110.89322,20.9931803 C110.89322,22.8403934 112.043608,24.2180984 113.947405,24.2180984 C114.853197,24.2180984 115.698166,23.8403934 116.216789,23.4017049 L116.216789,21.3499016 L113.834917,21.3499016 L113.834917,20.8600656 L116.726256,20.8600656 L116.726256,23.6161311 C116.084681,24.1879344 115.087329,24.6876066 113.927131,24.6876066 C111.677367,24.6876066 110.343859,23.024 110.343859,20.9931803" id="Fill-10" fill="#000000" mask="url(#mask-2)"></path>
                        <polygon id="Fill-11" fill="#000000" mask="url(#mask-2)" points="120.678516 17.4212459 125.747679 17.4212459 125.747679 17.911082 121.208257 17.911082 121.208257 20.7176393 125.289878 20.7176393 125.289878 21.2074754 121.208257 21.2074754 121.208257 24.0750164 125.798691 24.0750164 125.798691 24.5655082 120.678516 24.5655082"></polygon>
                        <path d="M26.8763081,14.0615082 C26.9999143,13.9500328 27.0097244,13.7592131 26.8985442,13.6352787 C25.079767,11.6149508 22.4807664,10.4562623 19.7679696,10.4562623 C14.4744843,10.4562623 10.1665787,14.7749508 10.1665787,20.0831475 C10.1665787,25.3913443 14.4744843,29.7100328 19.7679696,29.7100328 C22.4807664,29.7100328 25.079767,28.5513443 26.8985442,26.5310164 C27.0097244,26.4077377 26.9999143,26.216918 26.8763081,26.1047869 C26.7533559,25.9933115 26.5630416,26.0024918 26.4512074,26.1264262 C24.7468804,28.0208525 22.3107261,29.1067541 19.7679696,29.1067541 C14.8060629,29.1067541 10.7689138,25.0588852 10.7689138,20.0831475 C10.7689138,15.1074098 14.8060629,11.059541 19.7679696,11.059541 C22.3107261,11.059541 24.7468804,12.1460984 26.4512074,14.0398689 C26.5630416,14.1638033 26.7533559,14.1729836 26.8763081,14.0615082" id="Fill-12" fill="#B49740" mask="url(#mask-2)"></path>
                        <path d="M19.6072815,24.6423607 C16.9428808,24.6423607 14.774867,22.4685902 14.774867,19.7971148 C14.774867,17.1256393 16.9428808,14.9518689 19.6072815,14.9518689 C22.2723362,14.9518689 24.439696,17.1256393 24.439696,19.7971148 C24.439696,22.4685902 22.2723362,24.6423607 19.6072815,24.6423607 M24.7411906,25.2456393 C24.9073069,25.2456393 25.0420311,25.1105574 25.0420311,24.944 L25.0420311,19.7249836 C25.0420311,19.716459 25.0381071,19.7092459 25.0374531,19.7007213 C24.985787,16.741377 22.5718687,14.3479344 19.6072815,14.3479344 C16.6106482,14.3479344 14.172532,16.7925246 14.172532,19.7971148 C14.172532,22.8017049 16.6106482,25.2456393 19.6072815,25.2456393 C21.7125112,25.2456393 23.5378284,24.0377705 24.439696,22.2784262 L24.439696,24.944 C24.439696,25.1105574 24.5744203,25.2456393 24.7411906,25.2456393" id="Fill-13" fill="#B49740" mask="url(#mask-2)"></path>
                        <path d="M19.9470351,39.692918 C9.11677605,39.692918 0.306072539,30.8588197 0.306072539,19.9998033 C0.306072539,9.14144262 9.11677605,0.307344262 19.9470351,0.307344262 C30.7772942,0.307344262 39.5879977,9.14144262 39.5879977,19.9998033 C39.5879977,30.8588197 30.7772942,39.692918 19.9470351,39.692918 M19.9470351,-0.000196721311 C8.94804375,-0.000196721311 0,8.97160656 0,19.9998033 C0,31.028 8.94804375,39.9998033 19.9470351,39.9998033 C30.9460265,39.9998033 39.8940702,31.028 39.8940702,19.9998033 C39.8940702,8.97160656 30.9460265,-0.000196721311 19.9470351,-0.000196721311" id="Fill-14" fill="#B49740" mask="url(#mask-2)"></path>
                        <path d="M19.9470351,33.9286557 C12.2873736,33.9286557 6.05539666,27.6801311 6.05539666,20.0001311 C6.05539666,12.3194754 12.2873736,6.07160656 19.9470351,6.07160656 C27.6066966,6.07160656 33.8386736,12.3194754 33.8386736,20.0001311 C33.8386736,27.6801311 27.6066966,33.9286557 19.9470351,33.9286557 M19.9470351,5.76931148 C12.1212573,5.76931148 5.75390213,12.152918 5.75390213,20.0001311 C5.75390213,27.8466885 12.1212573,34.2302951 19.9470351,34.2302951 C27.7728129,34.2302951 34.1401681,27.8466885 34.1401681,20.0001311 C34.1401681,12.152918 27.7728129,5.76931148 19.9470351,5.76931148" id="Fill-15" fill="#B49740" mask="url(#mask-2)"></path>
                        <path d="M19.9470351,37.8041967 C10.1559839,37.8041967 2.19024986,29.8173115 2.19024986,20.0002623 C2.19024986,10.1825574 10.1559839,2.19567213 19.9470351,2.19567213 C29.7380864,2.19567213 37.7038204,10.1825574 37.7038204,20.0002623 C37.7038204,29.8173115 29.7380864,37.8041967 19.9470351,37.8041967 M19.9470351,1.89403279 C9.98986759,1.89403279 1.88940933,10.0166557 1.88940933,20.0002623 C1.88940933,29.9838689 9.98986759,38.1058361 19.9470351,38.1058361 C29.9042026,38.1058361 38.0053149,29.9838689 38.0053149,20.0002623 C38.0053149,10.0166557 29.9042026,1.89403279 19.9470351,1.89403279" id="Fill-16" fill="#B49740" mask="url(#mask-2)"></path>
                        <path d="M17.9824811,5.3317377 C17.9890211,5.3317377 17.9955611,5.33108197 18.0021011,5.33042623 C18.0851592,5.31993443 18.1446733,5.24321311 18.1335553,5.15927869 L17.8340228,2.82222951 C17.8235588,2.73895082 17.7470406,2.68059016 17.6639825,2.69042623 C17.5802704,2.70091803 17.5214102,2.77763934 17.5325283,2.86091803 L17.8320608,5.19862295 C17.8412168,5.27534426 17.9072709,5.3317377 17.9824811,5.3317377" id="Fill-17" fill="#B49740" mask="url(#mask-2)"></path>
                        <path d="M14.223871,6.34668852 C14.2428371,6.34668852 14.2624571,6.3427541 14.2814231,6.33488525 C14.3592493,6.3027541 14.3965273,6.21357377 14.3644813,6.13619672 L13.4724237,3.95586885 C13.4403777,3.87783607 13.3514335,3.84045902 13.2736074,3.8732459 C13.1957812,3.90472131 13.1585032,3.99390164 13.1905492,4.07193443 L14.0826068,6.25160656 C14.1068048,6.31062295 14.1637029,6.34668852 14.223871,6.34668852" id="Fill-18" fill="#B49740" mask="url(#mask-2)"></path>
                        <path d="M10.7338593,8.24216393 C10.7639434,8.2815082 10.8090694,8.3024918 10.8548495,8.3024918 C10.8868956,8.3024918 10.9195956,8.292 10.9470637,8.27101639 C11.0137718,8.21986885 11.0268518,8.12347541 10.9758397,8.0572459 L9.55077121,6.1824918 C9.50041313,6.1162623 9.40492896,6.10314754 9.33822084,6.15429508 C9.27085872,6.20544262 9.2584327,6.30118033 9.30879079,6.36806557 L10.7338593,8.24216393 Z" id="Fill-19" fill="#B49740" mask="url(#mask-2)"></path>
                        <path d="M8.01282211,11.0335738 C8.04029016,11.0552131 8.07299021,11.0657049 8.10569027,11.0657049 C8.15147035,11.0657049 8.19594243,11.045377 8.22602648,11.0060328 C8.27769257,10.9391475 8.26526655,10.8434098 8.19855843,10.7916066 L6.33857916,9.35160656 C6.27252504,9.29980328 6.17638687,9.3122623 6.12537478,9.37914754 C6.07436269,9.44603279 6.08613472,9.54177049 6.15284283,9.59357377 L8.01282211,11.0335738 Z" id="Fill-20" fill="#B49740" mask="url(#mask-2)"></path>
                        <path d="M6.10477375,14.4358033 C6.12373978,14.4443279 6.14401382,14.4482623 6.16297985,14.4482623 C6.22314796,14.4482623 6.27939206,14.4128525 6.3042441,14.3538361 C6.33629016,14.276459 6.29966609,14.1872787 6.22249396,14.1544918 L4.05382614,13.2462951 C3.976,13.2135082 3.88705584,13.2502295 3.85500979,13.3282623 C3.82230973,13.4056393 3.85893379,13.4948197 3.93675993,13.5276066 L6.10477375,14.4358033 Z" id="Fill-21" fill="#B49740" mask="url(#mask-2)"></path>
                        <path d="M2.81109315,17.9028197 L5.13999125,18.2175738 C5.14718526,18.2188852 5.15437927,18.219541 5.16091929,18.219541 C5.23612942,18.219541 5.30087553,18.1638033 5.31133955,18.087082 C5.32245757,18.0038033 5.26425147,17.927082 5.18119332,17.9152787 L2.85164122,17.6005246 C2.76792907,17.5887213 2.69206494,17.6477377 2.68094692,17.7310164 C2.6691749,17.8149508 2.728035,17.8916721 2.81109315,17.9028197" id="Fill-22" fill="#B49740" mask="url(#mask-2)"></path>
                        <path d="M5.31630996,21.9502295 C5.30519194,21.8669508 5.22867381,21.8092459 5.14626966,21.8184262 L2.81475556,22.1187541 C2.73169741,22.1292459 2.67283731,22.2059672 2.68330132,22.2892459 C2.69311134,22.366623 2.75851146,22.4223607 2.83437559,22.4223607 C2.8409156,22.4223607 2.84745561,22.4217049 2.85399562,22.4210492 L5.18485573,22.1207213 C5.26791387,22.1102295 5.32742798,22.0335082 5.31630996,21.9502295" id="Fill-23" fill="#B49740" mask="url(#mask-2)"></path>
                        <path d="M6.31837052,25.6807213 C6.28632447,25.6026885 6.19738031,25.5653115 6.11955417,25.5974426 L3.94565435,26.4918689 C3.86782821,26.524 3.83055014,26.6131803 3.8625962,26.6912131 C3.88679424,26.7502295 3.94369234,26.7862951 4.00320645,26.7862951 C4.02282648,26.7862951 4.04244652,26.7823607 4.06141255,26.7744918 L6.23531238,25.8800656 C6.31313851,25.8479344 6.35041658,25.7587541 6.31837052,25.6807213" id="Fill-24" fill="#B49740" mask="url(#mask-2)"></path>
                        <path d="M8.24911272,29.0237377 C8.19810063,28.9568525 8.10261647,28.9437377 8.03590835,28.9948852 L6.16677306,30.423082 C6.10006494,30.4742295 6.08698492,30.5699672 6.13799701,30.6368525 C6.16808106,30.6768525 6.21320714,30.6971803 6.25898722,30.6971803 C6.29103328,30.6971803 6.32373333,30.6873443 6.35120138,30.6663607 L8.22033667,29.2381639 C8.28704479,29.1870164 8.30012481,29.090623 8.24911272,29.0237377" id="Fill-25" fill="#B49740" mask="url(#mask-2)"></path>
                        <path d="M10.7635509,31.7796066 L9.32671042,33.6445246 C9.27569833,33.7107541 9.28812435,33.8071475 9.35417847,33.8582951 C9.38230052,33.8799344 9.41434657,33.8904262 9.44704663,33.8904262 C9.49282671,33.8904262 9.53795279,33.8700984 9.56803685,33.8307541 L11.0042234,31.9658361 C11.0558895,31.8996066 11.0434634,31.8038689 10.9767553,31.7520656 C10.9107012,31.7002623 10.815217,31.7120656 10.7635509,31.7796066" id="Fill-26" fill="#B49740" mask="url(#mask-2)"></path>
                        <path d="M14.1172035,33.7615082 L13.2107579,35.9352787 C13.1780578,36.0133115 13.2153359,36.1024918 13.292508,36.134623 C13.312128,36.1431475 13.3317481,36.147082 13.3513681,36.147082 C13.4108822,36.147082 13.4671263,36.1116721 13.4913244,36.0526557 L14.3977699,33.8788852 C14.43047,33.8015082 14.3938459,33.7116721 14.3160198,33.679541 C14.2388477,33.6467541 14.1492495,33.6834754 14.1172035,33.7615082" id="Fill-27" fill="#B49740" mask="url(#mask-2)"></path>
                        <path d="M18.0393138,34.6746885 C17.9549476,34.6622295 17.8790835,34.7219016 17.8679655,34.8051803 L17.5540449,37.1402623 C17.5422729,37.2241967 17.601133,37.300918 17.6841911,37.3120656 C17.6913851,37.3127213 17.6985792,37.313377 17.7051192,37.313377 C17.7796753,37.313377 17.8450754,37.2576393 17.8555394,37.180918 L18.16946,34.8458361 C18.180578,34.7625574 18.1223719,34.6858361 18.0393138,34.6746885" id="Fill-28" fill="#B49740" mask="url(#mask-2)"></path>
                        <path d="M21.8920999,34.6695738 C21.8090418,34.6800656 21.7495277,34.7567869 21.7606457,34.8407213 L22.0601782,37.1777705 C22.0693343,37.2544918 22.1353884,37.3108852 22.2105985,37.3108852 C22.2171385,37.3108852 22.2236785,37.3102295 22.2302185,37.3095738 C22.3139307,37.299082 22.3727908,37.2223607 22.3616728,37.139082 L22.0621402,34.801377 C22.0516762,34.7180984 21.9751581,34.659082 21.8920999,34.6695738" id="Fill-29" fill="#B49740" mask="url(#mask-2)"></path>
                        <path d="M25.6127125,33.6651803 C25.5348864,33.6973115 25.4976083,33.7864918 25.5296543,33.8638689 L26.4217119,36.043541 C26.44591,36.1025574 26.5028081,36.138623 26.5629762,36.138623 C26.5819422,36.138623 26.6015622,36.1346885 26.6205283,36.1268197 C26.6983544,36.0953443 26.7356325,36.0061639 26.7035864,35.9281311 L25.8115288,33.7478033 C25.7794828,33.6704262 25.6905386,33.6330492 25.6127125,33.6651803" id="Fill-30" fill="#B49740" mask="url(#mask-2)"></path>
                        <path d="M29.1602109,31.7578361 C29.1091988,31.6909508 29.0137147,31.6778361 28.9470066,31.7289836 C28.8802984,31.7801311 28.8672184,31.8765246 28.9182305,31.9427541 L30.343299,33.8175082 C30.3727291,33.8561967 30.4178552,33.8771803 30.4642892,33.8771803 C30.4963353,33.8771803 30.5283813,33.8666885 30.5558494,33.8457049 C30.6232115,33.7945574 30.6356375,33.6988197 30.5852794,33.6319344 L29.1602109,31.7578361 Z" id="Fill-31" fill="#B49740" mask="url(#mask-2)"></path>
                        <path d="M31.8812481,28.9664262 C31.81454,28.914623 31.7190558,28.927082 31.6680438,28.9939672 C31.6163777,29.0608525 31.6288037,29.1565902 31.6955118,29.2083934 L33.5554911,30.6483934 C33.5829591,30.6700328 33.6156592,30.6798689 33.6483592,30.6798689 C33.6934853,30.6798689 33.7386114,30.659541 33.7686955,30.6208525 C33.8197075,30.5539672 33.8079355,30.4582295 33.7412274,30.4064262 L31.8812481,28.9664262 Z" id="Fill-32" fill="#B49740" mask="url(#mask-2)"></path>
                        <path d="M33.7892965,25.5641967 C33.7114704,25.5314098 33.6225262,25.5681311 33.5898261,25.6461639 C33.5577801,25.723541 33.5944041,25.8127213 33.6715763,25.8455082 L35.8402441,26.7537049 C35.8598641,26.7622295 35.8794842,26.7661639 35.8991042,26.7661639 C35.9586183,26.7661639 36.0148624,26.7307541 36.0390604,26.6717377 C36.0717605,26.5943607 36.0351364,26.5051803 35.9573103,26.4723934 L33.7892965,25.5641967 Z" id="Fill-33" fill="#B49740" mask="url(#mask-2)"></path>
                        <path d="M37.0829771,22.0971803 L34.754079,21.7824262 C34.6697128,21.770623 34.5938487,21.8296393 34.5827307,21.912918 C34.5716127,21.9961967 34.6298188,22.072918 34.7128769,22.0847213 L37.042429,22.3994754 C37.048969,22.4001311 37.055509,22.4007869 37.0627031,22.4007869 C37.1372592,22.4007869 37.2033133,22.3450492 37.2131233,22.2689836 C37.2248953,22.1850492 37.1660352,22.1083279 37.0829771,22.0971803" id="Fill-34" fill="#B49740" mask="url(#mask-2)"></path>
                        <path d="M34.5777603,18.0497705 C34.5875703,18.1271475 34.6529704,18.183541 34.7281805,18.183541 C34.7347206,18.183541 34.7412606,18.1828852 34.7484546,18.1815738 L37.0793147,17.8812459 C37.1623728,17.8707541 37.2212329,17.7940328 37.2107689,17.7107541 C37.1996509,17.6268197 37.1231328,17.568459 37.0400746,17.5789508 L34.7092145,17.8792787 C34.6261564,17.8897705 34.5666423,17.9664918 34.5777603,18.0497705" id="Fill-35" fill="#B49740" mask="url(#mask-2)"></path>
                        <path d="M33.5756997,14.3192787 C33.5998978,14.3782951 33.6567959,14.4143607 33.716964,14.4143607 C33.73593,14.4143607 33.75555,14.4104262 33.7745161,14.4025574 L35.9484159,13.5081311 C36.026242,13.476 36.0635201,13.3868197 36.031474,13.3087869 C35.999428,13.2307541 35.9111378,13.1927213 35.8326577,13.2255082 L33.6587579,14.1199344 C33.5809317,14.1520656 33.5436537,14.2412459 33.5756997,14.3192787" id="Fill-36" fill="#B49740" mask="url(#mask-2)"></path>
                        <path d="M31.6449575,10.9762623 C31.6750416,11.0156066 31.7201676,11.0365902 31.7666017,11.0365902 C31.7979938,11.0365902 31.8306938,11.0260984 31.8581619,11.0051148 L33.7272972,9.57691803 C33.7940053,9.52577049 33.8070853,9.43003279 33.7560732,9.36314754 C33.7050611,9.29560656 33.609577,9.2824918 33.5428689,9.33363934 L31.6737336,10.7618361 C31.6070254,10.8129836 31.5939454,10.909377 31.6449575,10.9762623" id="Fill-37" fill="#B49740" mask="url(#mask-2)"></path>
                        <path d="M29.0101177,8.28 C29.0552438,8.28 29.1003698,8.25967213 29.1304539,8.22032787 L30.5672944,6.35540984 C30.6183065,6.28918033 30.6058805,6.19278689 30.5398264,6.14163934 C30.4731182,6.08983607 30.3776341,6.10229508 30.325968,6.16918033 L28.8897815,8.03409836 C28.8381154,8.10098361 28.8505414,8.19672131 28.9172495,8.24786885 C28.9447176,8.2695082 28.9774176,8.28 29.0101177,8.28" id="Fill-38" fill="#B49740" mask="url(#mask-2)"></path>
                        <path d="M25.6363219,6.33259016 C25.695836,6.33259016 25.7527341,6.29718033 25.7769322,6.23816393 L26.6833778,4.06439344 C26.7154238,3.98701639 26.6787998,3.89718033 26.6016276,3.86504918 C26.5238015,3.8322623 26.4348573,3.86963934 26.4021573,3.94701639 L25.4963657,6.12078689 C25.4636656,6.19881967 25.5002897,6.288 25.5781158,6.32013115 C25.5970819,6.32865574 25.6167019,6.33259016 25.6363219,6.33259016" id="Fill-39" fill="#B49740" mask="url(#mask-2)"></path>
                        <path d="M21.8547565,5.32531148 C21.8619505,5.32662295 21.8684905,5.32727869 21.8756845,5.32727869 C21.9502406,5.32727869 22.0156408,5.27154098 22.0261048,5.19481967 L22.3400253,2.8597377 C22.3517974,2.77580328 22.2929372,2.69908197 22.2098791,2.68793443 C22.125513,2.67613115 22.0496488,2.73514754 22.0385308,2.81908197 L21.7246102,5.15416393 C21.7134922,5.23744262 21.7716983,5.31416393 21.8547565,5.32531148" id="Fill-40" fill="#B49740" mask="url(#mask-2)"></path>
                        <path d="M19.8815696,5.20137705 C19.9659358,5.20137705 20.0339519,5.13318033 20.0339519,5.0492459 L20.0339519,2.69252459 C20.0339519,2.60793443 19.9659358,2.5397377 19.8815696,2.5397377 C19.7978575,2.5397377 19.7298413,2.60793443 19.7298413,2.69252459 L19.7298413,5.0492459 C19.7298413,5.13318033 19.7978575,5.20137705 19.8815696,5.20137705" id="Fill-41" fill="#B49740" mask="url(#mask-2)"></path>
                        <path d="M16.0243362,5.72813115 C16.0374162,5.72813115 16.0511503,5.72616393 16.0642303,5.72288525 C16.1453264,5.70059016 16.1930685,5.61731148 16.1714865,5.536 L15.5632654,3.25993443 C15.5416834,3.17862295 15.4586252,3.13009836 15.3768751,3.1517377 C15.2957789,3.17337705 15.2480368,3.25731148 15.2696189,3.33862295 L15.877186,5.61468852 C15.896152,5.68288525 15.9569741,5.72813115 16.0243362,5.72813115" id="Fill-42" fill="#B49740" mask="url(#mask-2)"></path>
                        <path d="M12.3027427,7.16091803 C12.3308647,7.21009836 12.3825308,7.23763934 12.4348509,7.23763934 C12.4603569,7.23763934 12.486517,7.23042623 12.510715,7.21665574 C12.5833092,7.17468852 12.6088152,7.08091803 12.5663051,7.00813115 L11.3910651,4.96813115 C11.349209,4.89468852 11.2556868,4.86977049 11.1837467,4.9117377 C11.1111526,4.95370492 11.0856465,5.04747541 11.1281566,5.1202623 L12.3027427,7.16091803 Z" id="Fill-43" fill="#B49740" mask="url(#mask-2)"></path>
                        <path d="M9.24927668,9.58216393 C9.27870674,9.61167213 9.3179468,9.6267541 9.35718687,9.6267541 C9.39577294,9.6267541 9.43501301,9.61167213 9.46444306,9.58216393 C9.52395717,9.5224918 9.52395717,9.42609836 9.46444306,9.36642623 L7.80262614,7.70019672 C7.74311203,7.64052459 7.64697386,7.64052459 7.58745976,7.70019672 C7.52794565,7.75986885 7.52794565,7.8562623 7.58745976,7.91593443 L9.24927668,9.58216393 Z" id="Fill-44" fill="#B49740" mask="url(#mask-2)"></path>
                        <path d="M6.92449879,12.7132459 C6.94869683,12.7270164 6.97485688,12.7335738 7.00036292,12.7335738 C7.05333702,12.7335738 7.10434911,12.7060328 7.13247116,12.6575082 C7.17432723,12.5847213 7.14947519,12.4909508 7.07688106,12.4489836 L5.04162948,11.2712787 C4.96903535,11.2286557 4.87551318,11.2535738 4.83365711,11.3270164 C4.79114704,11.3998033 4.81665308,11.492918 4.88924721,11.5348852 L6.92449879,12.7132459 Z" id="Fill-45" fill="#B49740" mask="url(#mask-2)"></path>
                        <path d="M3.21729326,15.7312787 L5.48733126,16.3411148 C5.50041128,16.3443934 5.51349131,16.3457049 5.52657133,16.3457049 C5.59393345,16.3457049 5.65540956,16.3011148 5.67372159,16.232918 C5.69530363,16.1516066 5.64690754,16.0683279 5.5658114,16.0460328 L3.2964274,15.4361967 C3.21467726,15.4145574 3.13161911,15.4624262 3.10938307,15.5443934 C3.08780104,15.6257049 3.13619712,15.7089836 3.21729326,15.7312787" id="Fill-46" fill="#B49740" mask="url(#mask-2)"></path>
                        <path d="M5.03561267,20.2180328 C5.11932481,20.2180328 5.18734093,20.1498361 5.18734093,20.0652459 C5.18734093,19.9813115 5.11932481,19.9131148 5.03561267,19.9131148 L2.68513253,19.9131148 C2.60142038,19.9131148 2.53340426,19.9813115 2.53340426,20.0652459 C2.53340426,20.1498361 2.60142038,20.2180328 2.68513253,20.2180328 L5.03561267,20.2180328 Z" id="Fill-47" fill="#B49740" mask="url(#mask-2)"></path>
                        <path d="M5.70753345,23.8934426 C5.68595141,23.8121311 5.60223926,23.7636066 5.52114312,23.7852459 L3.25110512,24.3957377 C3.17000898,24.417377 3.1216129,24.5013115 3.14384893,24.582623 C3.16150697,24.6501639 3.22298307,24.6954098 3.29034519,24.6954098 C3.30342522,24.6954098 3.31650524,24.6940984 3.33023926,24.6901639 L5.59962326,24.0803279 C5.6807194,24.0580328 5.72911549,23.9747541 5.70753345,23.8934426" id="Fill-48" fill="#B49740" mask="url(#mask-2)"></path>
                        <path d="M7.19787127,27.4561311 C7.1560152,27.3826885 7.06249303,27.3577705 6.98989891,27.4003934 L4.95464732,28.5780984 C4.8820532,28.6207213 4.85654715,28.7138361 4.89905723,28.786623 C4.92717927,28.8358033 4.97819136,28.8633443 5.03116546,28.8633443 C5.0566715,28.8633443 5.08283155,28.8567869 5.10702959,28.8423607 L7.14228117,27.6646557 C7.2148753,27.6220328 7.23972735,27.528918 7.19787127,27.4561311" id="Fill-49" fill="#B49740" mask="url(#mask-2)"></path>
                        <path d="M9.55678803,30.5103607 C9.49727392,30.4506885 9.40113575,30.4506885 9.34162165,30.5103607 L7.67980472,32.1765902 C7.62029062,32.2362623 7.62029062,32.3326557 7.67980472,32.3923279 C7.70923477,32.4224918 7.74847484,32.436918 7.78706091,32.436918 C7.82630098,32.436918 7.86554105,32.4224918 7.8949711,32.3923279 L9.55678803,30.7260984 C9.61630213,30.6664262 9.61630213,30.5700328 9.55678803,30.5103607" id="Fill-50" fill="#B49740" mask="url(#mask-2)"></path>
                        <path d="M12.4161465,32.9047213 L11.2409064,34.9447213 C11.1990503,35.0181639 11.2239024,35.1112787 11.2964965,35.1532459 C11.3206945,35.1676721 11.3468546,35.1742295 11.3730146,35.1742295 C11.4253347,35.1742295 11.4763468,35.1466885 11.5044689,35.0975082 L12.6797089,33.0568525 C12.721565,32.9840656 12.696713,32.8909508 12.6241188,32.8489836 C12.5515247,32.8063607 12.4580025,32.8312787 12.4161465,32.9047213" id="Fill-51" fill="#B49740" mask="url(#mask-2)"></path>
                        <path d="M16.1900601,34.3112787 C16.10831,34.2896393 16.0259058,34.3381639 16.0036698,34.4194754 L15.3954487,36.6948852 C15.3738667,36.7768525 15.4222628,36.8601311 15.5033589,36.8817705 C15.5164389,36.8857049 15.5295189,36.8876721 15.542599,36.8876721 C15.6099611,36.8876721 15.6714372,36.8424262 15.6897492,36.7742295 L16.2979703,34.4981639 C16.3195523,34.4168525 16.2718102,34.332918 16.1900601,34.3112787" id="Fill-52" fill="#B49740" mask="url(#mask-2)"></path>
                        <path d="M20.0125006,34.798623 C19.9281345,34.798623 19.8601184,34.8668197 19.8601184,34.9507541 L19.8601184,37.3074754 C19.8601184,37.3920656 19.9281345,37.4602623 20.0125006,37.4602623 C20.0962128,37.4602623 20.1642289,37.3920656 20.1642289,37.3074754 L20.1642289,34.9507541 C20.1642289,34.8668197 20.0962128,34.798623 20.0125006,34.798623" id="Fill-53" fill="#B49740" mask="url(#mask-2)"></path>
                        <path d="M23.830167,34.2773115 C23.7490708,34.2989508 23.7006747,34.3828852 23.7222568,34.4641967 L24.3311318,36.7402623 C24.3487899,36.808459 24.410266,36.8537049 24.4776281,36.8537049 C24.4907081,36.8537049 24.5037881,36.8517377 24.5168682,36.8478033 C24.5986183,36.8261639 24.6463604,36.7422295 24.6247784,36.660918 L24.0165573,34.3855082 C23.9943212,34.3041967 23.9119171,34.2550164 23.830167,34.2773115" id="Fill-54" fill="#B49740" mask="url(#mask-2)"></path>
                        <path d="M27.5913276,32.839082 C27.5494715,32.7662951 27.4559493,32.741377 27.3833552,32.7833443 C27.3107611,32.8253115 27.285255,32.919082 27.3277651,32.9918689 L28.5030052,35.0318689 C28.5311272,35.0810492 28.5821393,35.1085902 28.6344594,35.1085902 C28.6606195,35.1085902 28.6867795,35.1020328 28.7103235,35.0882623 C28.7835717,35.0462951 28.8084237,34.9525246 28.7659136,34.8797377 L27.5913276,32.839082 Z" id="Fill-55" fill="#B49740" mask="url(#mask-2)"></path>
                        <path d="M30.6447936,30.4178361 C30.5852794,30.3581639 30.4891413,30.3581639 30.4296272,30.4178361 C30.3701131,30.4775082 30.3701131,30.5739016 30.4296272,30.6335738 L32.0914441,32.2998033 C32.1208742,32.3299672 32.1601142,32.3443934 32.1987003,32.3443934 C32.2379404,32.3443934 32.2771804,32.3299672 32.3066105,32.2998033 C32.3661246,32.2401311 32.3661246,32.1437377 32.3066105,32.0840656 L30.6447936,30.4178361 Z" id="Fill-56" fill="#B49740" mask="url(#mask-2)"></path>
                        <path d="M32.9695714,27.2867541 C32.8969773,27.2447869 32.8041092,27.2697049 32.7615991,27.3424918 C32.719743,27.4152787 32.744595,27.5090492 32.8178432,27.5510164 L34.8524408,28.7287213 C34.8766388,28.7431475 34.9027988,28.7497049 34.9289589,28.7497049 C34.981279,28.7497049 35.0322911,28.7221639 35.0604131,28.6729836 C35.1029232,28.6001967 35.0774172,28.507082 35.004823,28.4651148 L32.9695714,27.2867541 Z" id="Fill-57" fill="#B49740" mask="url(#mask-2)"></path>
                        <path d="M36.676777,24.2687213 L34.406739,23.6588852 C34.3256428,23.6372459 34.2419307,23.6857705 34.2203486,23.767082 C34.1987666,23.8483934 34.2471627,23.9316721 34.3282588,23.9539672 L36.5976428,24.5638033 C36.6113769,24.567082 36.6244569,24.5690492 36.6375369,24.5690492 C36.704245,24.5690492 36.7663751,24.5238033 36.7846872,24.4556066 C36.8062692,24.3742951 36.7578731,24.2910164 36.676777,24.2687213" id="Fill-58" fill="#B49740" mask="url(#mask-2)"></path>
                        <path d="M37.2087415,19.7819672 L34.8582614,19.7819672 C34.7745492,19.7819672 34.7065331,19.8501639 34.7065331,19.9347541 C34.7065331,20.0186885 34.7745492,20.0868852 34.8582614,20.0868852 L37.2087415,20.0868852 C37.2924537,20.0868852 37.3604698,20.0186885 37.3604698,19.9347541 C37.3604698,19.8501639 37.2924537,19.7819672 37.2087415,19.7819672" id="Fill-59" fill="#B49740" mask="url(#mask-2)"></path>
                        <path d="M34.1865368,16.1065574 C34.2048488,16.1747541 34.2663249,16.22 34.333687,16.22 C34.3467671,16.22 34.3598471,16.2180328 34.3729271,16.2147541 L36.6429651,15.6042623 C36.7240613,15.582623 36.7724573,15.4986885 36.7502213,15.417377 C36.7286393,15.3360656 36.6449271,15.287541 36.563831,15.3098361 L34.294447,15.9196721 C34.2133508,15.9419672 34.1649547,16.0252459 34.1865368,16.1065574" id="Fill-60" fill="#B49740" mask="url(#mask-2)"></path>
                        <path d="M32.696199,12.5438689 C32.724321,12.5930492 32.7759871,12.6205902 32.8283072,12.6205902 C32.8538132,12.6205902 32.8799733,12.613377 32.9041713,12.5996066 L34.9394229,11.4219016 C35.012671,11.3792787 35.0375231,11.2861639 34.995013,11.213377 C34.9531569,11.1399344 34.8596348,11.1150164 34.7870406,11.1576393 L32.7517891,12.3353443 C32.6791949,12.3779672 32.6543429,12.471082 32.696199,12.5438689" id="Fill-61" fill="#B49740" mask="url(#mask-2)"></path>
                        <path d="M30.3372822,9.48963934 C30.3667123,9.51980328 30.4059523,9.53422951 30.4451924,9.53422951 C30.4837785,9.53422951 30.5230185,9.51980328 30.5524486,9.48963934 L32.2142655,7.82340984 C32.2737796,7.7637377 32.2737796,7.66734426 32.2142655,7.60767213 C32.1547514,7.548 32.0586132,7.548 31.9990991,7.60767213 L30.3372822,9.27390164 C30.2777681,9.33357377 30.2777681,9.42996721 30.3372822,9.48963934" id="Fill-62" fill="#B49740" mask="url(#mask-2)"></path>
                        <path d="M27.3460771,7.17213115 C27.3990512,7.17213115 27.4500633,7.14459016 27.4781854,7.09540984 L28.6534254,5.0547541 C28.6952815,4.98196721 28.6697755,4.88885246 28.5978353,4.84688525 C28.5245872,4.8042623 28.4317191,4.82983607 28.389863,4.90262295 L27.2146229,6.94262295 C27.1721128,7.01606557 27.1969649,7.10918033 27.270213,7.15114754 C27.2937571,7.16491803 27.3199171,7.17213115 27.3460771,7.17213115" id="Fill-63" fill="#B49740" mask="url(#mask-2)"></path>
                        <path d="M23.7040101,5.68872131 C23.7170902,5.692 23.7308242,5.69396721 23.7432502,5.69396721 C23.8106123,5.69396721 23.8720884,5.64872131 23.8904005,5.58052459 L24.4986215,3.30511475 C24.5202036,3.22314754 24.4718075,3.13986885 24.3907113,3.11822951 C24.3096152,3.09593443 24.2259031,3.14445902 24.204321,3.22577049 L23.5960999,5.50183607 C23.5745179,5.58314754 23.62226,5.66708197 23.7040101,5.68872131" id="Fill-64" fill="#B49740" mask="url(#mask-2)"></path>
                    </g>
                </g>
            </g>
        </g>
    </g>
</svg>
