<svg xmlns="http://www.w3.org/2000/svg" xmlns:xlink="http://www.w3.org/1999/xlink" width="52" height="50" viewBox="0 0 52 50"><defs><path id="4hkwc" d="M1020.78 1458.96a.25.25 0 0 1-.21-.11l-9.92-15a3.93 3.93 0 0 1 1.16-5.48l27.5-17.73a4.04 4.04 0 0 1 5.54 1.15l10.6 16.03a3.9 3.9 0 0 1 .1 4.16.25.25 0 0 1-.34.1.25.25 0 0 1-.09-.35 3.4 3.4 0 0 0-.1-3.63l-10.6-16.03a3.53 3.53 0 0 0-4.84-1l-27.5 17.72a3.43 3.43 0 0 0-1.01 4.78l9.92 15a.25.25 0 0 1-.21.39z"/><path id="4hkwd" d="M1028.6 1442.2a.25.25 0 0 1-.14-.47l20.53-13.23a.25.25 0 0 1 .34.08c.08.11.04.27-.07.34l-20.52 13.23a.25.25 0 0 1-.14.04"/><path id="4hkwe" d="M1015.27 1450.84l-3.54-5.36 33.99-21.92a.25.25 0 0 1 .27.42l-33.56 21.64 2.99 4.53 5.27-3.4a.25.25 0 1 1 .27.42z"/><path id="4hkwa" d="M1020.57 1468.8h40.84v-27.06h-40.84z"/><path id="4hkwg" d="M1057.43 1442.24a3.48 3.48 0 0 1 3.48 3.48v19.1a3.48 3.48 0 0 1-3.48 3.48h-32.88a3.48 3.48 0 0 1-3.48-3.48v-19.1a3.48 3.48 0 0 1 3.48-3.48zm0 26.56c2.2 0 3.98-1.79 3.98-3.98v-19.1c0-2.2-1.79-3.98-3.98-3.98h-32.88a3.98 3.98 0 0 0-3.98 3.98v19.1c0 2.2 1.78 3.98 3.98 3.98z"/><path id="4hkwh" d="M1026.28 1455.46c0 .42-.23.8-.6.8-.38 0-.62-.38-.62-.8 0-.42.23-.8.6-.8.39 0 .62.39.62.8zm-1.36 0c0 .5.29.92.75.92s.75-.43.75-.92c0-.5-.28-.92-.74-.92-.47 0-.76.43-.76.92z"/><path id="4hkwi" d="M1028.12 1455.46c0 .42-.23.8-.6.8-.38 0-.62-.38-.62-.8 0-.42.23-.8.6-.8.39 0 .62.39.62.8zm-1.36 0c0 .5.29.92.75.92s.75-.43.75-.92c0-.5-.28-.92-.74-.92-.47 0-.76.43-.76.92z"/><path id="4hkwj" d="M1029.95 1455.46c0 .42-.23.8-.6.8-.38 0-.62-.38-.62-.8 0-.42.23-.8.6-.8.39 0 .62.39.62.8zm-1.36 0c0 .5.29.92.75.92s.75-.43.75-.92c0-.5-.28-.92-.74-.92-.47 0-.76.43-.76.92z"/><path id="4hkwk" d="M1031.8 1455.46c0 .42-.24.8-.61.8-.38 0-.62-.38-.62-.8 0-.42.23-.8.6-.8.39 0 .62.39.62.8zm-1.37 0c0 .5.29.92.75.92s.75-.43.75-.92c0-.5-.28-.92-.74-.92-.47 0-.76.43-.76.92z"/><path id="4hkwl" d="M1034.4 1455.46c0 .42-.23.8-.6.8-.38 0-.62-.38-.62-.8 0-.42.23-.8.6-.8.39 0 .62.39.62.8zm-1.36 0c0 .5.29.92.75.92s.75-.43.75-.92c0-.5-.28-.92-.74-.92-.47 0-.76.43-.76.92z"/><path id="4hkwm" d="M1036.24 1455.46c0 .42-.23.8-.6.8-.38 0-.62-.38-.62-.8 0-.42.23-.8.6-.8.39 0 .62.39.62.8zm-1.36 0c0 .5.29.92.75.92s.75-.43.75-.92c0-.5-.28-.92-.74-.92-.47 0-.76.43-.76.92z"/><path id="4hkwn" d="M1038.08 1455.46c0 .42-.23.8-.6.8-.38 0-.62-.38-.62-.8 0-.42.23-.8.6-.8.39 0 .62.39.62.8zm-1.36 0c0 .5.29.92.75.92s.75-.43.75-.92c0-.5-.28-.92-.74-.92-.47 0-.76.43-.76.92z"/><path id="4hkwo" d="M1039.91 1455.46c0 .42-.23.8-.6.8-.38 0-.62-.38-.62-.8 0-.42.23-.8.6-.8.39 0 .62.39.62.8zm-1.36 0c0 .5.29.92.75.92s.75-.43.75-.92c0-.5-.28-.92-.74-.92-.47 0-.76.43-.76.92z"/><path id="4hkwp" d="M1042.53 1455.46c0 .42-.23.8-.6.8-.38 0-.62-.38-.62-.8 0-.42.23-.8.6-.8.39 0 .62.39.62.8zm-1.36 0c0 .5.29.92.75.92s.75-.43.75-.92c0-.5-.28-.92-.74-.92-.47 0-.76.43-.76.92z"/><path id="4hkwq" d="M1044.36 1455.46c0 .42-.23.8-.6.8-.38 0-.62-.38-.62-.8 0-.42.23-.8.6-.8.39 0 .62.39.62.8zm-1.36 0c0 .5.29.92.75.92s.75-.43.75-.92c0-.5-.28-.92-.74-.92-.47 0-.76.43-.76.92z"/><path id="4hkwr" d="M1046.2 1455.46c0 .42-.23.8-.6.8-.38 0-.62-.38-.62-.8 0-.42.23-.8.6-.8.39 0 .62.39.62.8zm-1.36 0c0 .5.29.92.75.92s.75-.43.75-.92c0-.5-.28-.92-.74-.92-.47 0-.76.43-.76.92z"/><path id="4hkws" d="M1048.04 1455.46c0 .42-.23.8-.6.8-.38 0-.62-.38-.62-.8 0-.42.23-.8.6-.8.39 0 .62.39.62.8zm-1.36 0c0 .5.29.92.75.92s.75-.43.75-.92c0-.5-.28-.92-.74-.92-.47 0-.76.43-.76.92z"/><path id="4hkwt" d="M1050.65 1455.46c0 .42-.23.8-.6.8-.38 0-.62-.38-.62-.8 0-.42.23-.8.6-.8.39 0 .62.39.62.8zm-1.36 0c0 .5.29.92.75.92s.75-.43.75-.92c0-.5-.28-.92-.74-.92-.47 0-.76.43-.76.92z"/><path id="4hkwu" d="M1052.5 1455.46c0 .42-.24.8-.62.8-.37 0-.61-.38-.61-.8 0-.42.23-.8.6-.8.39 0 .62.39.62.8zm-1.37 0c0 .5.29.92.75.92s.75-.43.75-.92c0-.5-.28-.92-.74-.92-.47 0-.76.43-.76.92z"/><path id="4hkwv" d="M1054.32 1455.46c0 .42-.23.8-.6.8-.38 0-.62-.38-.62-.8 0-.42.23-.8.6-.8.39 0 .62.39.62.8zm-1.36 0c0 .5.29.92.75.92s.75-.43.75-.92c0-.5-.28-.92-.74-.92-.47 0-.76.43-.76.92z"/><path id="4hkww" d="M1056.16 1455.46c0 .42-.23.8-.6.8-.38 0-.62-.38-.62-.8 0-.42.23-.8.6-.8.39 0 .62.39.62.8zm-1.36 0c0 .5.29.92.75.92s.75-.43.75-.92c0-.5-.28-.92-.74-.92-.47 0-.76.43-.76.92z"/><path id="4hkwx" d="M1055.7 1462.77c0 1.77-1.45 3.2-3.24 3.2a3.21 3.21 0 0 1-3.23-3.2c0-1.76 1.45-3.19 3.23-3.19a3.21 3.21 0 0 1 3.24 3.2"/><path id="4hkwy" d="M1059.58 1462.77c0 1.77-1.45 3.2-3.24 3.2a3.21 3.21 0 0 1-3.23-3.2c0-1.76 1.45-3.19 3.23-3.19a3.21 3.21 0 0 1 3.24 3.2"/><path id="4hkwz" d="M1028.63 1447.59c0 1.05-.87 1.91-1.94 1.91a1.93 1.93 0 0 1-1.94-1.91c0-1.06.87-1.92 1.94-1.92 1.07 0 1.94.86 1.94 1.92"/><path id="4hkwb" d="M1010 1468.8h51.4V1420H1010z"/><path id="4hkwB" d="M1029.83 1448.08h7.76v-1.28h-7.76z"/><path id="4hkwC" d="M1024.66 1459.58h7.76v-1.28h-7.76z"/><path id="4hkwD" d="M1024.66 1463.4h15.52v-1.27h-15.52z"/><clipPath id="4hkwf"><use xlink:href="#4hkwa"/></clipPath><clipPath id="4hkwA"><use xlink:href="#4hkwb"/></clipPath></defs><g><g transform="translate(-1010 -1419)"><use fill="#b49740" xlink:href="#4hkwc"/></g><g transform="translate(-1010 -1419)"><use fill="#b49740" xlink:href="#4hkwd"/></g><g transform="translate(-1010 -1419)"><use fill="#b49740" xlink:href="#4hkwe"/></g><g transform="translate(-1010 -1419)"/><g clip-path="url(#4hkwf)" transform="translate(-1010 -1419)"><use fill="#b49740" xlink:href="#4hkwg"/></g><g transform="translate(-1010 -1419)"><use fill="#b49740" xlink:href="#4hkwh"/></g><g transform="translate(-1010 -1419)"><use fill="#b49740" xlink:href="#4hkwi"/></g><g transform="translate(-1010 -1419)"><use fill="#b49740" xlink:href="#4hkwj"/></g><g transform="translate(-1010 -1419)"><use fill="#b49740" xlink:href="#4hkwk"/></g><g transform="translate(-1010 -1419)"><use fill="#b49740" xlink:href="#4hkwl"/></g><g transform="translate(-1010 -1419)"><use fill="#b49740" xlink:href="#4hkwm"/></g><g transform="translate(-1010 -1419)"><use fill="#b49740" xlink:href="#4hkwn"/></g><g transform="translate(-1010 -1419)"><use fill="#b49740" xlink:href="#4hkwo"/></g><g transform="translate(-1010 -1419)"><use fill="#b49740" xlink:href="#4hkwp"/></g><g transform="translate(-1010 -1419)"><use fill="#b49740" xlink:href="#4hkwq"/></g><g transform="translate(-1010 -1419)"><use fill="#b49740" xlink:href="#4hkwr"/></g><g transform="translate(-1010 -1419)"><use fill="#b49740" xlink:href="#4hkws"/></g><g transform="translate(-1010 -1419)"><use fill="#b49740" xlink:href="#4hkwt"/></g><g transform="translate(-1010 -1419)"><use fill="#b49740" xlink:href="#4hkwu"/></g><g transform="translate(-1010 -1419)"><use fill="#b49740" xlink:href="#4hkwv"/></g><g transform="translate(-1010 -1419)"><use fill="#b49740" xlink:href="#4hkww"/></g><g transform="translate(-1010 -1419)"><use fill="#ddd4bf" xlink:href="#4hkwx"/></g><g transform="translate(-1010 -1419)"><use fill="#b49740" xlink:href="#4hkwy"/></g><g transform="translate(-1010 -1419)"><use fill="#b49740" xlink:href="#4hkwz"/></g><g transform="translate(-1010 -1419)"/><g clip-path="url(#4hkwA)" transform="translate(-1010 -1419)"><use fill="#eae3d3" xlink:href="#4hkwB"/></g><g clip-path="url(#4hkwA)" transform="translate(-1010 -1419)"><use fill="#eae3d3" xlink:href="#4hkwC"/></g><g clip-path="url(#4hkwA)" transform="translate(-1010 -1419)"><use fill="#eae3d3" xlink:href="#4hkwD"/></g></g></svg>