<svg xmlns="http://www.w3.org/2000/svg" xmlns:xlink="http://www.w3.org/1999/xlink" width="53" height="28" viewBox="0 0 53 28"><defs><path id="baz5a" d="M718 1455.93V1433h48.81v22.93z"/><path id="baz5d" d="M720.3 1455.93H718V1433h48.81v2.3c0 .14-.1.25-.24.25a.25.25 0 0 1-.25-.25v-1.8H718.5v21.93h1.8a.25.25 0 0 1 0 .5"/><path id="baz5e" d="M722.35 1457.98h-2.3v-22.93h48.81v2.3c0 .14-.1.25-.25.25a.25.25 0 0 1-.25-.25v-1.8h-47.81v21.93h1.8a.25.25 0 0 1 0 .5"/><path id="baz5b" d="M718 1460.04h52.92V1433H718z"/><path id="baz5g" d="M722.6 1437.61h47.82v21.93h-47.81zm-.49 22.43h48.81v-22.93h-48.81z"/><path id="baz5h" d="M751.26 1453.32a6.71 6.71 0 1 1-9.5-9.5 6.71 6.71 0 0 1 9.5 9.5"/><clipPath id="baz5c"><use xlink:href="#baz5a"/></clipPath><clipPath id="baz5f"><use xlink:href="#baz5b"/></clipPath></defs><g><g transform="translate(-718 -1433)"/><g clip-path="url(#baz5c)" transform="translate(-718 -1433)"><use fill="#b49740" xlink:href="#baz5d"/></g><g transform="translate(-718 -1433)"><use fill="#b49740" xlink:href="#baz5e"/></g><g transform="translate(-718 -1433)"/><g clip-path="url(#baz5f)" transform="translate(-718 -1433)"><use fill="#b49740" xlink:href="#baz5g"/></g><g clip-path="url(#baz5f)" transform="translate(-718 -1433)"><use fill="#ddd4bf" xlink:href="#baz5h"/></g></g></svg>