<svg xmlns="http://www.w3.org/2000/svg" xmlns:xlink="http://www.w3.org/1999/xlink" width="29" height="50" viewBox="0 0 29 50"><defs><path id="s5lyd" d="M454.93 558.28h-11.98c-.73 0-1.33-.59-1.33-1.32v-.89h.45v.89c0 .48.39.88.88.88h11.98c.49 0 .88-.4.88-.88v-.89h.45v.89c0 .73-.6 1.32-1.33 1.32z"/><path id="s5lye" d="M448.95 566.45a.22.22 0 0 1-.17-.37l2.2-2.48c.09-.09.23-.1.32-.01.1.08.1.22.02.31l-2.2 2.47a.22.22 0 0 1-.17.08"/><path id="s5lyf" d="M450.65 570.49a.22.22 0 0 1-.17-.37l2.2-2.48a.22.22 0 0 1 .34.3l-2.2 2.47a.22.22 0 0 1-.17.08"/><path id="s5lyg" d="M449.1 569.56a.22.22 0 0 1-.16-.37l5.9-6.38c.09-.09.23-.1.32-.01.09.08.1.22 0 .31l-5.9 6.38a.22.22 0 0 1-.16.07"/><path id="s5lyh" d="M458.65 556.36c1.23 0 2.22.99 2.22 2.21v42.04c0 1.23-1 2.22-2.22 2.22H439.2c-1.22 0-2.22-1-2.22-2.22v-42.04c0-1.22 1-2.21 2.22-2.21zm0 46.91c1.47 0 2.66-1.19 2.66-2.66v-42.04c0-1.47-1.19-2.66-2.66-2.66H439.2a2.67 2.67 0 0 0-2.66 2.66v42.04c0 1.47 1.2 2.66 2.66 2.66z"/><path id="s5lya" d="M462.24 555H435.6v49.27h26.64V555z"/><path id="s5lyj" d="M459 555.45a2.8 2.8 0 0 1 2.8 2.8v42.77a2.8 2.8 0 0 1-2.8 2.8h-20.15a2.8 2.8 0 0 1-2.8-2.8v-42.77a2.8 2.8 0 0 1 2.8-2.8zm0 48.82a3.25 3.25 0 0 0 3.24-3.25v-42.77A3.25 3.25 0 0 0 459 555h-20.14a3.25 3.25 0 0 0-3.25 3.25v42.77a3.25 3.25 0 0 0 3.25 3.25z"/><path id="s5lyk" d="M435.86 565.47a.86.86 0 0 1-.86-.87v-1.16c0-.47.39-.86.86-.86v.44a.42.42 0 0 0-.42.42v1.16c0 .23.2.42.42.42z"/><path id="s5lyl" d="M435.86 570.86a.86.86 0 0 1-.86-.87v-3.2c0-.47.39-.86.86-.86v.45a.42.42 0 0 0-.42.41v3.2c0 .23.2.42.42.42z"/><path id="s5lyb" d="M462.88 565.93v4.93h-.86v-4.93h.86z"/><path id="s5lyn" d="M462.02 570.86v-.45c.23 0 .42-.19.42-.42v-3.2a.42.42 0 0 0-.42-.41v-.45c.47 0 .86.39.86.86v3.2c0 .48-.38.87-.86.87"/><path id="s5lyo" d="M435.86 576.04a.86.86 0 0 1-.86-.87v-3.2c0-.47.39-.86.86-.86v.45a.42.42 0 0 0-.42.41v3.2c0 .23.2.42.42.42z"/><path id="s5lyc" d="M435 604.27h27.89V555H435z"/><path id="s5lyq" d="M444.98 600.28h7.93v-.44h-7.93z"/><clipPath id="s5lyi"><use xlink:href="#s5lya"/></clipPath><clipPath id="s5lym"><use xlink:href="#s5lyb"/></clipPath><clipPath id="s5lyp"><use xlink:href="#s5lyc"/></clipPath></defs><g><g transform="translate(-435 -555)"><use xlink:href="#s5lyd"/></g><g transform="translate(-435 -555)"><use xlink:href="#s5lye"/></g><g transform="translate(-435 -555)"><use xlink:href="#s5lyf"/></g><g transform="translate(-435 -555)"><use xlink:href="#s5lyg"/></g><g transform="translate(-435 -555)"><use xlink:href="#s5lyh"/></g><g transform="translate(-435 -555)"/><g clip-path="url(#s5lyi)" transform="translate(-435 -555)"><use xlink:href="#s5lyj"/></g><g transform="translate(-435 -555)"><use xlink:href="#s5lyk"/></g><g transform="translate(-435 -555)"><use xlink:href="#s5lyl"/></g><g transform="translate(-435 -555)"/><g clip-path="url(#s5lym)" transform="translate(-435 -555)"><use xlink:href="#s5lyn"/></g><g transform="translate(-435 -555)"><use xlink:href="#s5lyo"/></g><g transform="translate(-435 -555)"/><g clip-path="url(#s5lyp)" transform="translate(-435 -555)"><use xlink:href="#s5lyq"/></g></g></svg>