
<svg width="12px" height="15px" viewBox="0 0 12 15" version="1.1" xmlns="http://www.w3.org/2000/svg" xmlns:xlink="http://www.w3.org/1999/xlink">
    <!-- Generator: Sketch 48.2 (47327) - http://www.bohemiancoding.com/sketch -->
    <desc>Created with Sketch.</desc>
    <defs></defs>
    <g id="Page-1" stroke="none" stroke-width="1" fill="none" fill-rule="evenodd">
        <g id="Passive/active" transform="translate(-222.000000, -677.000000)" stroke="#000000" stroke-width="0.5">
            <g id="Page-1" transform="translate(229.000000, 684.500000) rotate(-30.000000) translate(-229.000000, -684.500000) translate(224.000000, 677.000000)">
                <path d="M4.70690782,0.165024427 C2.20211557,0.165024427 0.164473362,2.20184841 0.164473362,4.70690778 C0.164473362,7.21082512 2.20211557,9.24822012 4.70690782,9.24822012 C7.21170006,9.24822012 9.24934227,7.21082512 9.24934227,4.70690778 C9.24934227,2.20184841 7.21170006,0.165024427 4.70690782,0.165024427 Z M4.70690782,9.41324454 C2.11188366,9.41324454 0,7.3016171 0,4.70690778 C0,2.11162744 2.11188366,0 4.70690782,0 C7.30193197,0 9.41324454,2.11162744 9.41324454,4.70690778 C9.41324454,7.3016171 7.30193197,9.41324454 4.70690782,9.41324454 Z" id="Stroke-1"></path>
                <path d="M4.70662227,14.9043039 C4.27387933,14.9043039 3.92218523,14.3934533 3.92218523,13.7652452 L3.92218523,10.9821186 L4.04231119,10.9821186 L4.04231119,13.7652452 C4.04231119,14.3207022 4.34045516,14.7726085 4.70662227,14.7726085 C5.07278938,14.7726085 5.37045091,14.3207022 5.37045091,13.7652452 L5.37045091,10.9821186 L5.49105932,10.9821186 L5.49105932,13.7652452 C5.49105932,14.3934533 5.13888278,14.9043039 4.70662227,14.9043039 Z" id="Stroke-3"></path>
            </g>
        </g>
    </g>
</svg>
